<svg xmlns="http://www.w3.org/2000/svg" xmlns:xlink="http://www.w3.org/1999/xlink" width="265.704" height="121.056" viewBox="0 0 265.704 121.056"><defs><clipPath id="a"><rect width="265.704" height="121.056" fill="none"/></clipPath></defs><g clip-path="url(#a)"><path d="M55,64.835c1.464.78,2.144.78,2.924,2.047,1.072.682,2.049,1.17,1.949,2.532.39,1.559.39,1.854.78,3.51.195,1.072-.877,2.729-.975,3.314A2.764,2.764,0,0,1,56.654,77.5c-2.631.585-3.7-.78-5.848-1.754-.195-.78-.877-.585-1.364-.585a6.19,6.19,0,0,0-4.483-1.657c-2.144-.975-2.436-.585-4.581-1.17-.782-.877-1.951-.585-4-.682-1.854-.195-3.9-.585-5.362-.294-1.655-.291-5.068.294-7.017.489-.973.39-2.729.1-3.509.78-1.752.195-2.63.39-3.119,1.267-1.754,1.559-2.826,2.534-2.826,4.678A5.508,5.508,0,0,0,16.7,83.839c1.363.877.583,1.852,2.339,1.852,1.363.487,1.559.976,2.922,1.462a3.963,3.963,0,0,0,3.216,1.074c1.269-.1,1.462.583,3.218.68,1.949.39,3.7,1.17,5.945.585.877.487,2.922-.195,4.581-.1.291.39,2.144-.294,3.021.68a23.882,23.882,0,0,1,3.216,1.754c.78.1,1.559,2.144,2.534,2.436A3.309,3.309,0,0,1,48.76,97c.292,1.854-1.559,3.509-3.314,3.606-1.657.879-4,.879-5.263.976-1.17.583-3.315-.294-4.678-.294-1.852.39-3.9-.875-4.97-.973-1.657-.489-4.193-.489-5.165-1.559-1.17-.976-3.9-1.462-4.972-2.146-2.142-.39-3.411-2.436-4.386-2.826-1.655-.585-2.144-1.949-3.509-3.509a7.373,7.373,0,0,1-2.339-4.191c.1-1.852-1.265-2.826-.875-4.873.485-1.462-.1-2.631.68-3.606,1.17-1.267.78-2.047,1.949-2.924s1.364-1.072,2.924-2.339a16.481,16.481,0,0,0,3.606-1.756c1.559,0,2.633-1.17,4-1.265.78-.585,3.315-.585,4-.975,1.85-.585,2.729.585,3.9-.585,1.754-.294,1.949.39,3.409-.39,1.366.195,2.146.292,3.119-.487,2.049-.2,3.119-.487,3.023-2.146-.39-1.265-.195-1.949-1.17-2.922.195-1.267-.975-1.657-1.267-2.729-.1-1.949-1.072-1.364-1.072-2.436.292-1.366-.39-1.852-1.267-3.8.1-1.364-1.072-3.7-1.267-4.972.39-.485-2.534-2.142-3.509-1.17-1.364,0-2.438,1.17-3.9,1.366-1.852.1-2.828,1.17-3.9,1.363-2.536.39-3.509,1.559-5.947,1.559-2.339.294-3.9,1.17-4.969.587-1.464.682-2.146-.39-3.119-.682-1.269-.585-1.949-.487-2.536-1.854-.487-1.07-2.242-1.363-2.242-2.436-.1-.975-1.462-1.17-1.754-2.631C1.783,43.1.418,42.32.028,40.566c-.292-1.85,1.754-1.46,2.144-.877,1.267.682,3.119,1.267,4.288,1.756,1.754.291,3.218.68,4.388.39,1.17-.39,3.312.39,5.458-.39,1.267-.1,2.436,1.07,4.189-.587,2.049-.487,3.608-1.363,5.167-1.363,1.85,0,2.142-.879,4.093-1.269a1.9,1.9,0,0,0,1.754-1.46c.68-1.17-.1-1.756.195-2.926-.1-.682.195-.975.195-2.826-.195-1.949.1-2.242.585-4.386.975-.682.682-2.631,1.559-3.7,1.364-.975,1.072-1.852,3.119-1.657,1.754-.585,1.949.487,3.8,1.657.682,1.462,1.267,1.559,2.534,1.949,1.462,1.17,1.17,1.657,2.631,1.462A5.953,5.953,0,0,0,51,27.409c.487-.292,1.17.487,1.754-.1a11.543,11.543,0,0,1,5.265.877,3.146,3.146,0,0,1,2.24,3.021c.195,2.144-1.267,2.924-2.729,4.093a29.02,29.02,0,0,1-4.581,2.534c-1.754.975-3.021.195-3.606,1.754-1.267.877-2.339.39-3.606,1.559-1.657,1.17-3.411,1.074-5.653,2.047-1.269.976-.78,1.756-1.17,2.926.68,1.657.975,2.047,1.657,3.8.1,1.364,1.17,2.047,1.462,2.826.1.877,1.267,1.363,1.754,2.729,1.17,1.17,2.826,3.216,3.606,4.093,1.072.975,3.021,3.021,4.288,3.314Zm-14.034-30.6c.975-.195,1.462-1.364,2.436-1.559,1.949,0,2.436-.78,2.339-2.047.195-.585-.487-1.657-1.754-2.242-1.17-.487-1.462-1.267-2.924-1.364-2.144-.1-3.606,1.17-3.606,2.339a9.038,9.038,0,0,0-.39,3.509,1.46,1.46,0,0,0,.583,1.462c.587.78,1.269.292,3.315-.1" transform="translate(0 18.45)" fill="#231815"/><path d="M69.329,67.07a15.238,15.238,0,0,0-.78,2.729c.2.682-.682.975-.487,1.754-.292.975-.682,2.339-.975,3.509-.585.78-.585,2.339-.78,3.314-.585,2.243-.195,4.386-1.07,6.627a37.679,37.679,0,0,0-.684,5.362c.1,1.363-.585,2.047-.1,4.481a5.763,5.763,0,0,0,.193,3.119,13.2,13.2,0,0,1,.587,2.339,3.5,3.5,0,0,1-1.464,2.633,5.227,5.227,0,0,1-3.021.973,4.051,4.051,0,0,1-3.021-.487c-1.364-.292-1.754-1.265-2.826-2.045-.682-.487-1.17-1.559-2.047-2.926-.585-.877-.487-2.436-.975-2.922a9.674,9.674,0,0,1-1.364-6.335c-.1-2.243-.877-4-.195-6.532.487-1.852-.39-2.729.195-5.068.487-1.072.1-3.509.487-5.068a4.72,4.72,0,0,1,.39-3.411c.585-.78.1-2.242.39-3.314a2.886,2.886,0,0,1,.195-1.269c.195-1.17-.195-2.142.39-2.824.682-.682-.1-1.17.292-2.436.39-2.436-.1-2.534.487-4.093.487-.682-.1-1.072,0-1.852.1-.682.975-1.559.39-2.047-.292-1.269.39-1.269.1-1.852-.39-.78.487-1.366.39-2.339-.39-1.462.877-2.339.292-3.705-.292-1.363.39-1.852.1-3.7-.1-.684-.195-2.339-.39-4.1a7.962,7.962,0,0,0-.682-2.826c-.585-1.364.39-2.144,1.559-1.559a7.544,7.544,0,0,1,2.047,1.657c.78,1.072,1.754,1.267,2.339,2.242a4.627,4.627,0,0,0,2.242,2.633,6.515,6.515,0,0,1,1.657,2.824c.682,1.756,1.17,2.536.682,3.216a6.909,6.909,0,0,1-.973,4.777c-.587.39-.587,1.46-.879,2.436-.39.78-.195,1.559-1.07,3.119a13.153,13.153,0,0,0-.976,3.119c-1.267,1.267-.583,2.534-.877,3.216-.195.975-.485,1.754-.78,3.216-1.072,1.559-1.364,4.483-1.17,6.53-.1,1.657-.195,4.483-.39,6.53-.585,1.852.1,3.606.39,6.14.487,2.534.78,4.777,2.436,4.191.78-.583.976-1.657,1.366-2.532,0-1.559,1.559-2.536,1.85-4.68a11.1,11.1,0,0,0,1.852-4.581c.487-1.267,1.267-2.924,1.852-4.678.487-1.559.877-2.534,1.559-4.386.39-.975.684-1.659,1.267-1.559.78.195.294,1.46,0,2.436m58.477,30.019c.1.875-.193,1.752-1.462,2.922a4.468,4.468,0,0,1-3.312,1.269,5.1,5.1,0,0,1-3.9-1.366,4.639,4.639,0,0,1-3.121-2.922c-.292-.78-2.339-1.17-2.729-2.536a10.487,10.487,0,0,1-2.729-2.435,3.354,3.354,0,0,0-3.8.39c-1.072.78-1.17,1.852-2.339,2.242a6.99,6.99,0,0,1-2.436,2.436,18.024,18.024,0,0,1-4.191,1.852c-1.559.487-1.949-.1-4.386.487-1.657.1-3.8.1-5.165-.78-2.438-1.074-3.021-.976-4.873-2.436-1.364-.682-1.754-1.756-2.731-3.021-.78-1.074-.78-2.243-.78-4s.587-2.729,2.633-4.485c1.462-1.267,2.631-1.559,4.775-2.436,1.072,0,3.119-.78,5.263-1.072,1.364.2,2.242-.583,4.483-.193,1.852.291,2.436-.39,3.606,0a1.887,1.887,0,0,0,2.436-1.951c-.1-1.267.292-1.657.292-3.411a36.658,36.658,0,0,0-.292-5.848c1.267-1.852-.39-1.657,0-3.119a7.9,7.9,0,0,1-.195-3.411c.585-1.364-.292-1.657,0-3.021.877-1.559-.585-1.17-.487-2.631.292-.682-.39-1.072-.1-2.826-.1-.585-.877-1.852-2.047-1.364a4.3,4.3,0,0,0-2.047.78c-.877.78-1.657.39-3.119,1.17-1.364.78-1.949,1.462-3.606,1.754-1.756,1.267-2.826,1.364-3.509,2.144-1.949,1.754-2.826,2.242-4.581,2.339A13.84,13.84,0,0,1,78.2,60.93a17.557,17.557,0,0,1-2.926-.877c-.68-.292-2.24-.292-1.85-1.267.291-.682.78-.585,2.047-.78.583-.1,1.852-.78,3.021-1.17a12.7,12.7,0,0,0,2.63-.975c1.559.39,1.269-.487,3.023-1.462,1.265-.975,2.144-.489,2.924-1.559,2.339-1.072,4.093-1.462,5.068-2.631,2.144-.682,2.729-1.462,4.581-2.339a12.649,12.649,0,0,0,3.606-1.756c.877-.29,1.267-2.729,1.17-4.386,0-1.559.487-3.9-.195-6.042.292-2.047-.292-3.606-.585-6.042.195-1.754-1.657-2.631-3.314-3.119-1.559-.1-2.631.292-3.314.195-1.559.39-1.659-1.364-.195-2.144.877-.585,1.267-1.559,2.729-1.852a6.48,6.48,0,0,1,3.119-.682c1.364.1,3.021.39,4.191.585,1.949,1.072,2.924.975,3.9,1.852,1.17,1.364,2.144,2.631,1.949,4.776-.1.585-.682.877-.195,1.657.585,1.366-.1,1.949.195,2.826a10.8,10.8,0,0,1-.1,2.631c-.684.877.193.78,0,1.852-.294.684.1,1.17.485,1.657a2.339,2.339,0,0,0,2.243.2,18.942,18.942,0,0,0,2.24.193c1.269-.1.975.78,2.144.2.877-.39.975.78,1.754.39,1.269-.587,1.949.291,3.021.1a3.177,3.177,0,0,1,2.243.487,2.976,2.976,0,0,1,1.462,2.438,2.148,2.148,0,0,1-1.269,2.63,4.659,4.659,0,0,1-3.119.78c-.78-.39-1.17.2-1.949.294-1.267.195-2.63-.195-3.8.485a28.058,28.058,0,0,0-3.413,1.269c-.682.39-1.462,1.169-1.072,1.754.292.875-.583,1.364.1,2.144.1,1.072,0,1.754.1,2.534-.78,1.462.193,1.754,0,2.339-.2,1.462.485,1.754.1,2.924-.78,1.657-.585,2.631.195,4.581.1,1.949,0,2.924.1,4.678.583.975-.294,3.7.1,4.775a19.191,19.191,0,0,1-.195,5.75c-.68,1.267.489,2.631,1.659,2.826a23.141,23.141,0,0,0,3.9,2.144c1.752.684,2.045,1.754,3.8,2.047,1.366.2.78,1.657,3.021,2.047,1.074.39,1.074,1.462,2.436,2.438,1.366,1.46,1.756,2.047,1.852,4.775M98.276,85.3c-2.242.1-3.8-.39-5.653-.39a55.01,55.01,0,0,0-6.044.68c-1.655.585-2.922.975-3.214,1.364C82.1,88.025,82,88.415,82,89.485c.1,1.659.68,1.949,2.534,3.021,1.559.877,2.924.39,4.191.78,1.657.684,2.532-.583,4.288-.682a11.5,11.5,0,0,0,4-1.949,20.47,20.47,0,0,0,2.436-2.24c.975-.684.78-2.146-1.17-3.119m17.835-56.53c.292-.975-.78-1.462-.682-1.949.195-1.072-.68-1.657-.877-1.949-.487-.78-.682-1.17-.973-1.559-1.169-.877-.294-1.559.68-1.364.489.1,1.852.292,2.242.877.877.78,1.949.39,2.536,1.462.487.877,1.169.877,2.142,1.559a7.223,7.223,0,0,1,1.657,2.436c.489,1.072-.1.975.489,2.049a4.3,4.3,0,0,1-.78,2.922,4.15,4.15,0,0,1-2.828,1.17c-2.144,0-2.63-.877-3.019-2.826.39-1.17-.294-1.265-.587-2.826m15.79.585a3.241,3.241,0,0,1-3.119,1.657c-2.631-.1-2.926-1.754-3.315-3.216a17.153,17.153,0,0,0-1.17-2.631c-.39-.78-.682-.975-.875-1.364-.39-1.072-.487-1.072-1.559-1.754-.2-.877-.684-.487-1.366-1.072-.39-.292-.877-.39-1.07-.877-.2-.585.1-1.072,1.169-.975.68.1,1.17.1,2.436.292a11.265,11.265,0,0,1,2.922.975c.587,1.17,1.072.195,1.756.585a7.916,7.916,0,0,1,3.021,2.144A3.266,3.266,0,0,0,132,24.868a4.793,4.793,0,0,1,.39,1.852,3.6,3.6,0,0,1-.487,2.631" transform="translate(43.752 16.702)" fill="#231815"/><path d="M173.359,99.724c0,1.949-.682,3.216-1.267,3.312-.292,1.464-2.242,1.366-3.216,1.657-1.852-.29-2.339.879-3.9.587-2.047-.294-2.826.583-3.509.1-2.047-.875-3.021.1-4.388-.193a8.529,8.529,0,0,1-4.384-.587,15.255,15.255,0,0,1-4.288-1.265c-1.169-1.464-2.534-.684-3.8-2.047-.39-1.072-2.24-1.659-2.339-2.438-1.267-.487-1.46-2.534-1.46-3.019-.682-.587-.78-1.659-.976-3.315.2-1.462-.875-1.657-.682-3.312.489-1.854-.78-1.854-.583-2.926a13.276,13.276,0,0,0-1.559-5.263c-.487-1.462-2.633-3.021-4.29-2.729-2.144-.487-2.339,1.267-4.288,2.242-.78,1.754-2.242,2.339-3.314,3.7a27.922,27.922,0,0,1-2.729,3.413c-.585,1.655-1.462.583-2.631,3.409-1.169,1.659-2.242,1.852-2.534,3.509-.682,1.072-2.242,2.729-2.339,3.608-.975,1.07-2.047,3.019-4.678,3.216-1.462,0-2.924.1-3.216-1.267-.587-1.366-1.366-1.852-1.267-3.218-.39-1.754.585-3.409,1.364-5.748-.1-.489.485-1.269,1.559-2.339.195-.879.975-.78,2.339-1.854.877-1.265,1.754-.682,2.924-1.852a8.877,8.877,0,0,0,2.242-1.559c1.754-.1,1.072-.975,2.339-1.559a2.364,2.364,0,0,0,2.242-1.657c1.17-1.072,3.606-1.852,4.581-3.216a12.149,12.149,0,0,1,2.339-1.754c1.559-1.267,1.559-1.754,3.119-2.826.294-.877,1.267-.39,1.854-1.657.78-1.462,1.657-1.17,2.63-2.534,1.169-1.559,2.536-2.047,3.119-3.023A27.923,27.923,0,0,0,141.78,62a12.939,12.939,0,0,0,3.119-3.314,16.842,16.842,0,0,1,2.731-3.021c1.559-1.267,1.265-1.949,1.852-3.119.292-1.949-1.072-2.146-2.146-2.536-1.752-.193-1.949.39-4.288.976-1.363.682-1.657,1.267-2.63,1.17a5.674,5.674,0,0,1-2.729,1.462,15.166,15.166,0,0,1-2.926,1.754c-1.17.1-1.657,1.265-2.532,1.655-1.949.976-2.536,2.341-3.8,2.438a11.286,11.286,0,0,1-3.314,2.144,21.578,21.578,0,0,1-3.314,2.144c-1.17.975-1.267,1.168-2.924.877-2.436-.292-3.314-.39-4.873-2.729-1.559-1.17-1.462-3.8-1.657-5.165.1-.879-.39-4.288,1.364-4.678,1.267-.292.975.975,1.754,1.657,1.267,1.072,2.436,2.826,4.191,2.142,1.559.489,3.021-.78,4.97-1.17,1.366-.29,2.242-.193,3.119-1.169,1.366-.973,2.339-.485,3.216-1.46.39-.975,2.631-.585,3.218-1.364.78-.877,1.46-.684,3.019-1.657s3.119-.587,3.608-1.852c1.07-.782,2.436-1.074,3.9-2.146.877.1,1.559-.487,3.019-1.267a8.378,8.378,0,0,1,6.337-1.17c1.267.2,1.754-.292,3.314.292a6.169,6.169,0,0,1,3.216,1.267c1.559.39,2.534,1.17,2.534,2.047a5.968,5.968,0,0,1,.975,3.218,3.833,3.833,0,0,1-1.657,4c-.487,1.17-1.852.585-2.729,2.045a24.511,24.511,0,0,1-2.339,1.854c-1.464.1-1.074,1.364-1.657,1.17-1.559-.39-.682.682-1.366,1.17-.875.1-1.655,1.072-2.142,1.364a5.53,5.53,0,0,1-2.047,1.17c-1.559.195-1.072.975-1.754,1.364-1.559,1.657-2.047,1.462-3.023,2.339-.78,1.559-3.119,1.462-4.091,3.021a15.707,15.707,0,0,0-3.023,2.436A3.231,3.231,0,0,0,137.2,74.48c.78.975.587,2.144,1.852,2.534.587.487,1.464,1.17,2.146,1.754a14.32,14.32,0,0,0,2.047,3.509c.875.975.485,3.023,1.752,4.582,0,1.265.489,2.824,1.366,3.214,1.072,1.17.292,2.243,1.752,2.339,1.17,1.267.78,1.17,2.339,1.464,1.269.78,2.049.485,3.413.583,1.949,0,2.631.877,3.509-.193.975-.294,2.242.1,2.534-.39,1.559,0,2.436-.489,3.314-.39,2.047.193,4.288.1,6.335,1.559a6.2,6.2,0,0,1,2.729,1.949,4.423,4.423,0,0,1,1.072,2.729M132.911,21.655c-.585-1.072-2.339-3.216-.975-3.8.684-.292.975.195,1.267.487a9.388,9.388,0,0,0,3.413,1.559c.78.292,1.265,1.267,3.021.975,1.363-.292,1.169.78,2.729.585,1.752-.195,1.559.682,3.119.682,1.657.1,1.559,1.267,3.606,2.436.583.682,1.852,2.339,2.631,3.216.39,1.852,1.267,2.631.975,4.093.292,1.364.195,2.144-1.267,3.314-.877,1.366-2.146,1.267-3.216,1.559-1.462-.1-2.049-.583-3.509-.973-1.659-.587-3.119-1.269-4.288-1.17-.879.193-1.756.1-2.438.291a40.96,40.96,0,0,1-4.189.78c-1.659.39-1.366-.68-.587-1.07,1.17-.587,1.559-1.269,2.536-1.366.68-.1,1.07-.78,1.85-1.267a2.5,2.5,0,0,0,1.462-2.339,4.683,4.683,0,0,0-1.462-3.021c-.68-.975-1.46-1.072-2.142-2.436-.1-1.072-1.854-1.267-2.536-2.534" transform="translate(92.345 15.529)" fill="#231815"/><path d="M13.442,14.033h-3.4v.289c0,.622-.731.8-1.376.8-.467,0-.8-.156-.8-.6v-.067S8,12.189,8,10.766V7.01q-.767.767-1.533,1.4a.515.515,0,0,1-.246.135.06.06,0,0,1-.066-.067A.266.266,0,0,1,6.241,8.3,17.454,17.454,0,0,0,9.418.012C9.508.034,12.6.456,12.6,1.078c0,.2-.223.356-.645.356H11.8c-.112.266-.223.51-.356.755H12.4a7.49,7.49,0,0,1,.933-.956.085.085,0,0,1,.067-.022.194.194,0,0,1,.111.022c.622.289,1.889,1.132,1.889,1.6,0,.223-.244.4-.866.4a17.81,17.81,0,0,1-2.511,2.311h1.31c.2-.244.778-.866.933-.866.334,0,1.756.933,1.756,1.378,0,.221-.2.4-.622.532-.022.311-.022.868-.022,1.466,0,1.2.022,2.556.022,2.556,0,1.578.067,2.778.111,3.355v.045c0,.512-.643.712-1.31.712-.534,0-.755-.223-.755-.579v-.111ZM8.709,15.277c.221,0,.487,1.734.487,2.444,0,1.822-.866,2.667-1.8,2.667A1.012,1.012,0,0,1,6.354,19.3,1.493,1.493,0,0,1,7,18.1a3.454,3.454,0,0,0,1.557-2.511c.043-.2.088-.311.156-.311M11.4,5.545a14.509,14.509,0,0,0,1.066-2.823H11.176A18.081,18.081,0,0,1,9.553,5.234a4.576,4.576,0,0,1,.577.311Zm-1.621,13.4a1.35,1.35,0,0,1,.022-.289,13.057,13.057,0,0,0,.311-2.245,4.119,4.119,0,0,0-.09-.888A.538.538,0,0,1,10,15.345c0-.067.022-.112.067-.112a5.259,5.259,0,0,1,1.666,3.222,1.282,1.282,0,0,1-1.2,1.423c-.512,0-.755-.379-.755-.933M10.93,6.077H10.02V9.3h.911Zm0,3.778H10.02V13.1l.021.379h.89Zm1.445,8.378a6.473,6.473,0,0,0-.71-2.823.679.679,0,0,1-.112-.246.058.058,0,0,1,.066-.066c.379,0,2.511,1.711,2.511,2.911,0,.489-.289,1.222-1.021,1.222-.444,0-.712-.422-.733-1M13.507,6.077h-.956V9.3h.956Zm-.043,7.4c0-.2.021-.4.021-.579,0-.444.022-1,.022-1.955V9.855h-.956v3.623Zm1.265,4.133a5.884,5.884,0,0,0-1.177-2.446.679.679,0,0,1-.133-.2c0-.045.022-.045.045-.045.176,0,2.976,1,2.976,2.4a1.043,1.043,0,0,1-.976,1.089c-.356,0-.622-.311-.735-.8M19.351,8.3c-.843,0-2.643.045-3.465.133a1.422,1.422,0,0,1-.334-.843c.755.088,2.89.178,4.223.178h.043V5.723c-.843,0-2.266.022-3.044.111a1.434,1.434,0,0,1-.334-.843c.645.066,2.223.133,3.377.156V3.234h-.176c-.845,0-2.712.066-3.533.156a1.512,1.512,0,0,1-.356-.868c.71.09,2.821.18,4.065.18V2.589A18.05,18.05,0,0,0,19.642.055c.223,0,3.422.022,3.422.712,0,.2-.268.422-.778.532-.022.156-.045.69-.045,1.4h1.021A7.6,7.6,0,0,1,24.685.968c.2,0,2.11,1.511,2.11,1.977,0,.178-.131.289-.356.289h-4.2c0,.6-.022,1.289-.022,1.932h.6a8.606,8.606,0,0,1,1.4-1.6c.043,0,1.979,1.2,1.979,1.844a.311.311,0,0,1-.334.311H22.219V7.768h1.666a9.713,9.713,0,0,1,1.488-1.734c.335,0,2.135,1.556,2.135,1.977,0,.178-.133.289-.334.289Zm4,6.734H19.04v1.4c0,.579,0,2.09.024,2.4,0,.266.022.976.022,1.222,0,.111-.022.71-1.49.71-.577,0-.888-.2-.888-.6V20.1c.131-1.689.156-3.4.156-3.889l.022-4.245a24.709,24.709,0,0,0-.178-3.109,9.962,9.962,0,0,1,2.555,1.11h3.822c.045-.066.823-1.2,1.111-1.2.045,0,.066.022.09.022.512.223,2.133,1.177,2.133,1.734,0,.244-.221.444-.735.555-.022.444-.043,1.066-.043,1.689,0,.868.021,1.734.021,2.243,0,.69.069,1.756.09,2.511v.135c0,2.733-2.933,2.911-3.066,2.911a.435.435,0,0,1-.444-.311c-.223-.667-.467-1.044-2.09-1.756-.156-.066-.244-.133-.244-.178s.066-.066.178-.066h.133A16.279,16.279,0,0,0,22,18.411h.069c.731,0,1.288-.356,1.288-1.156ZM20.2,10.545H19.04v3.91H20.2Zm3.156,3.91c0-1.644-.022-3.443-.022-3.91H22.108v3.91Z" transform="translate(5.379 0.01)" fill="#231815"/><path d="M24.192,8.127a5.167,5.167,0,0,0-1.777-2.8c-.112-.088-.178-.156-.178-.2,0-.066.088-.088.266-.088.356,0,4.245.2,4.245,2.333A1.463,1.463,0,0,1,25.3,8.993a1.145,1.145,0,0,1-1.111-.866m.4,10.177c0-.088.022-.156.022-.244.109-1,.264-2,.264-2.8,0-1.468-.6-1.912-2.088-2.2-.221-.045-.334-.133-.334-.2s.09-.133.291-.133H23.1c1.068,0,1.691-.088,2.223-1.089C26.437,9.55,28.414,6.015,29.614,3.9c.09-.178.2-.266.246-.266s.066.045.066.133a.568.568,0,0,1-.045.246c-2.8,8.288-2.866,9.954-2.866,10.466a3.347,3.347,0,0,0,.133.956,8.333,8.333,0,0,1,.489,2.288c0,1.177-.645,2.11-1.777,2.11A1.369,1.369,0,0,1,24.593,18.3M25.9,3.661A5.618,5.618,0,0,0,24.171.773c-.135-.111-.225-.178-.225-.223s.069-.067.18-.067C25.06.482,28.5.928,28.5,2.95a1.5,1.5,0,0,1-1.443,1.644A1.208,1.208,0,0,1,25.9,3.661m7.133,14.533c-.579,0-2.956.043-4.245.133a1.255,1.255,0,0,1-.422-.868c1.111.09,3.066.135,5.267.135h.446V3.106c-.98,0-3.2.021-4.223.111a1.279,1.279,0,0,1-.4-.888c1.111.088,3.244.156,5.445.156h3.156A17.753,17.753,0,0,1,39.723.306a.167.167,0,0,1,.135-.045c.223,0,2.645,1.844,2.645,2.466a.343.343,0,0,1-.356.379H36.88V17.594h1.934a17.37,17.37,0,0,1,1.666-2.2.294.294,0,0,1,.156-.067c.377,0,2.645,2.022,2.645,2.511a.327.327,0,0,1-.356.356Z" transform="translate(19.44 0.228)" fill="#231815"/><path d="M43.58,4.327c-.358,0-3.934.043-5.357.156a1.529,1.529,0,0,1-.379-.933V3.5c1.334.133,4.91.2,6.578.2H46.4V2.437A14.312,14.312,0,0,0,46.178.059h.156A18.5,18.5,0,0,1,49.489.37c.354.067.557.246.557.444,0,.223-.246.444-.825.579-.066.688-.066,1.754-.066,2.311h4.178c.512-.8,1.6-2.356,1.867-2.356.4,0,2.823,2.11,2.823,2.622a.357.357,0,0,1-.377.356ZM53,8.547H49.133v1.468c0,1.977.022,3.932.022,3.932,0,.622.022,2.556.066,3.956l.047,1.644v.045c0,.51-.534.933-1.867.933-.712,0-1.111-.2-1.111-.757v-.111c.066-.622.178-3.911.178-5.666V8.547h-3.6c0,1.267-.022,5.2-.022,5.2,0,.489,0,2.2.022,2.511,0,.266.021.888.021,1.134,0,.311-.622.733-1.8.733-.624,0-1-.178-1-.6v-.067a36.664,36.664,0,0,0,.133-3.932l.022-3.179a26.96,26.96,0,0,0-.2-3.621,12.76,12.76,0,0,1,3.068,1.2h3.355V7.858a21.24,21.24,0,0,0-.246-3.132,18.382,18.382,0,0,1,3.289.4c.332.09.534.266.534.467,0,.223-.246.444-.845.557-.022.332-.067.976-.067,1.777h3.512C52.8,7.747,53.69,6.7,54.023,6.7a.383.383,0,0,1,.156.022c.51.221,2.288,1.2,2.288,1.754,0,.246-.244.467-.8.6a11.553,11.553,0,0,0-.045,1.378c0,.821.022,1.644.022,1.644,0,1.089.045,2.2.066,2.888v.133c0,2.6-3.087,2.956-3.4,2.956a.522.522,0,0,1-.557-.377c-.178-.557-.6-1.2-2.243-1.912-.178-.088-.291-.176-.291-.244s.09-.088.246-.088H49.6c.51.043,1.376.156,1.932.156.8,0,1.466-.379,1.466-1.134Z" transform="translate(33.085 0.052)" fill="#231815"/><path d="M58.743,16.284a5.436,5.436,0,0,0-.645.956,1.547,1.547,0,0,1-1.533,1.044c-.956,0-2.956-1-2.956-2.845A1.633,1.633,0,0,1,54.341,14c.092,0,.135.088.135.266a1.067,1.067,0,0,1-.021.244v.045a1.483,1.483,0,0,0,1.443.956,3.448,3.448,0,0,0,1.691-.645,29.863,29.863,0,0,1,5.688-2.843c-1.267-1.445-1.512-2.245-1.512-3,0-1.378.89-2.489,1.889-3.668.176-.244.2-.354.2-.422a.362.362,0,0,0-.111-.244A4.184,4.184,0,0,1,62.52,1.929c0-.489.176-1.289.424-1.289.112,0,.221.2.287.712.112.688,1.49,1.554,2.356,2.155a5.567,5.567,0,0,1,1.244.843,2.052,2.052,0,0,1,.467,1.31c0,.978-.622,1.156-1.042,1.156a4.718,4.718,0,0,1-.847-.133,2.4,2.4,0,0,0-2.843,2.088,2.089,2.089,0,0,0,.911,1.49c.354.311.8.555,1.179.843.156.111.311.246.467.356a11.652,11.652,0,0,1,2.69-.334c3.287,0,6.087,1.734,6.087,3.867,0,1.177-.692,1.779-1.355,1.779a1.512,1.512,0,0,1-1-.446,2.747,2.747,0,0,0-1.756-.487A5.121,5.121,0,0,0,68.54,16a1.816,1.816,0,0,1-.311.043c-.156,0-.242-.043-.242-.133s.135-.2.422-.332c1.867-.823,2.022-1.379,2.022-1.713,0-.933-1.4-2.043-3.156-2.043a9.388,9.388,0,0,0-1.6.133,3.843,3.843,0,0,1,1.49,2.778c0,1.754-1.533,3.222-3.823,3.222a7.069,7.069,0,0,1-4.356-1.934Zm4.978-3.756a14.24,14.24,0,0,0-4.335,3.089,8.033,8.033,0,0,0,2.913.555c1.8,0,2.178-1.2,2.178-1.867a2.8,2.8,0,0,0-.755-1.754Z" transform="translate(46.867 0.559)" fill="#231815"/><path d="M82.715,12.317a3.131,3.131,0,0,0-3.2-3.134,7.829,7.829,0,0,0-5.688,3.091c-.956,1.155-1.267,1.511-2.377,1.511-.868,0-1.4-.424-1.4-1.068a1,1,0,0,1,.512-.8c1.179-.868,2.823-2.112,3.134-2.446A41.189,41.189,0,0,0,78.873,3.14a.153.153,0,0,0-.157-.156.142.142,0,0,0-.088.021c-.512.291-1.289.845-1.822,1.156a3.155,3.155,0,0,1-1.556.577c-1.2,0-2.6-1.132-2.6-2.045,0-.422.131-.532.221-.532a.391.391,0,0,1,.221.133,1.379,1.379,0,0,0,1.091.379,11.256,11.256,0,0,0,4.311-1.179c.534-.244.6-.51,1.021-.51.866,0,2.733,1.132,2.733,1.822,0,.622-1.065,1-1.621,1.466A41.78,41.78,0,0,0,75.6,9.338h.022a.621.621,0,0,0,.18-.066,9.969,9.969,0,0,1,3.865-.845c3.244,0,5.668,1.824,5.668,4.245,0,3.177-3.4,5.8-7.622,5.8-2.532,0-4.935-1.111-4.935-2.933,0-1.443,1.625-2,2.958-2,1.8,0,3.51,1,3.555,2.868a4.566,4.566,0,0,0,3.42-4.09m-5.287,4.378a2.121,2.121,0,0,0-2.311-2.11c-1.068,0-1.4.422-1.4.866,0,.976,1.934,1.333,2.755,1.355a6.644,6.644,0,0,0,.956-.045Z" transform="translate(61.238 0.861)" fill="#231815"/><path d="M86.8,7.649c-1.578,0-3.4-1.244-3.4-2.511,0-.354.156-.778.332-.778.09,0,.2.088.334.223a3.615,3.615,0,0,0,2.778,1,10.54,10.54,0,0,0,3-.555c-1.046-.978-1.711-1.644-1.711-3.066,0-.823.354-1.179,1.066-1.179a1.713,1.713,0,0,1,1.355.579,3.564,3.564,0,0,0,.69.755c.111.088.178.178.178.223,0,.066-.09.088-.2.088h-.086c-.225-.022-.424-.067-.557-.067-.111,0-.178.045-.178.178a3.583,3.583,0,0,0,.735,1.711c.086.088.156.2.242.289,1.8-.645,1.824-.868,1.824-.956,0-.133-.2-.289-.579-.489-.264-.156-.4-.244-.4-.332,0-.045.109-.09.264-.09a2.575,2.575,0,0,1,.358.045,6.386,6.386,0,0,0,1.132.111c1.066,0,2.378,0,2.378,1.111,0,.622-.534,1.021-1.779,1.333-.487.112-1.179.356-1.957.622,1,1.023,2.024,1.912,2.624,2.534,1.244,1.31,2.309,2.71,2.309,3.777,0,.956-.176,1.8-1.132,1.8a1.58,1.58,0,0,1-.823-.266A10.809,10.809,0,0,0,89.8,12.4c-2,0-3.688.4-3.688,1.932,0,1.49,2.4,2.245,4.288,2.245a3.74,3.74,0,0,0,1.754-.334,1.338,1.338,0,0,1,.514-.066c.887,0,2.532.332,2.532,1.423,0,.733-.845,1.421-3.334,1.421-4.288,0-7-2.221-7-4.311,0-1.777,1.466-2.622,2.888-3.066,2.133-.688,4.088-.532,6.444-.712.512-.043.735-.2.735-.442,0-.356-.4-1.334-3.6-4.157-3.089,1.111-3.8,1.312-4.534,1.312" transform="translate(72.914 0.684)" fill="#231815"/><path d="M100.861,6.606c0-1.066.156-2.378.156-3.267,0-1.711-.645-1.977-1.222-2.022-.2-.021-.356-.045-.356-.156,0-.2.622-.71,1.224-.71.8,0,2.8.933,2.8,2.421a9.915,9.915,0,0,1-.246,1.578,16.252,16.252,0,0,0-.289,2.778c0,1.021.2,1.466.6,1.711,2.065-1.021,2.11-1.021,2.911-1.021,1.134,0,1.822.532,1.822,1.11,0,.4-.311.823-1,1.111a21.419,21.419,0,0,1-2.689.688c-3.6.89-5.934,2.223-5.934,3.778,0,1.423,1.734,2.223,4.046,2.223a7.822,7.822,0,0,0,2.909-.489,5.161,5.161,0,0,1,1.468-.6c.111,0,.244-.022.356-.022,1.4,0,2.266.645,2.266,1.378,0,.956-1.512,2.067-5.156,2.067-4.487,0-7.043-2.067-7.043-4.313,0-1.865,1.822-3.777,4.843-5.332a2.866,2.866,0,0,1-1.466-2.911" transform="translate(85.222 0.394)" fill="#231815"/><path d="M113.148,13.622a1.322,1.322,0,0,1-.332.043,13.081,13.081,0,0,1-3,5.668c-.043,0-.066-.022-.066-.111a1.228,1.228,0,0,1,.043-.2A24.407,24.407,0,0,0,110.661,13a4.761,4.761,0,0,0-.024-.622,13.509,13.509,0,0,1,2.378.555l.133.067V10.822c-.71.221-1.353.422-1.889.555v.112c0,.4-.133.622-.311.622-.487,0-1-2.045-1.132-2.823a9.7,9.7,0,0,0,1.111.111h1.132a19.025,19.025,0,0,0,2.89-6.466c.667.178,3.089,1.021,3.089,1.644,0,.156-.135.291-.422.291a2,2,0,0,1-.335-.045,32.134,32.134,0,0,1-4.464,4.554c1.066-.045,2.243-.111,3.31-.2a3.847,3.847,0,0,0-.688-1.466.45.45,0,0,1-.112-.2c0-.043.022-.043.069-.043.377,0,3,1.155,3,2.778a1.3,1.3,0,0,1-1.22,1.378c-.424,0-.823-.289-.868-1.046-.023-.244-.023-.555-.066-.866-.268.112-.579.223-.868.334v5.422c0,1.488.09,3.844.111,4.311v.045c0,.377-.354.71-1.556.71-.643,0-.866-.223-.866-.6v-.045c.022-.311.067-.976.067-1.511,0-.512.021-1.779.021-2.755Zm-.71-8.822a1.755,1.755,0,0,1,1.021,1.488,1.343,1.343,0,0,1-1.2,1.378,1.019,1.019,0,0,1-.933-.776,4.488,4.488,0,0,0-1.379-2.6c-.111-.088-.176-.156-.176-.2,0-.022.043-.045.133-.045a7.62,7.62,0,0,1,1.955.467A14.669,14.669,0,0,0,112.7.223V0c3.312.577,3.467,1.156,3.467,1.312,0,.176-.223.332-.622.332-.067,0-.133-.021-.223-.021A17.372,17.372,0,0,1,112.438,4.8m6.087,11.311c0,1.333-.886,1.556-1.22,1.556-.557,0-.8-.622-.823-1.224a8.406,8.406,0,0,0-.778-3.932.526.526,0,0,1-.088-.244.047.047,0,0,1,.043-.045c.311,0,2.866,2,2.866,3.889m8.6-11.045h-2.088l-.024.268a19.907,19.907,0,0,1-.287,2.8c.467.424,2.332,2.178,2.332,4.223,0,.911-.377,1.689-1.2,1.689-.536,0-.8-.444-.8-1.177v-.778a10.61,10.61,0,0,0-.446-3.377,10.069,10.069,0,0,1-3.555,6.022v.133c0,.622.024,2.911.024,3.2,0,.489.021,1.267.043,1.644v.022c0,.622-1.2.757-1.734.757-.622,0-.8-.2-.8-.579v-.133c.086-.755.156-4.288.156-5.289V7.176a35.714,35.714,0,0,0-.2-3.8,12.793,12.793,0,0,1,2.712,1.111h1.511a31.662,31.662,0,0,0-.244-4.4c3.334.112,3.334.579,3.334.735,0,.2-.246.422-.735.489,0,.888-.022,2.153-.066,3.177h1.8a8.654,8.654,0,0,1,1.066-1.134.178.178,0,0,1,.112-.021.348.348,0,0,1,.154.021c.6.266,2.067,1.156,2.067,1.668,0,.244-.246.467-.712.577-.021.688-.043,1.777-.043,2.911,0,2.288.043,4.843.043,5.178,0,.688.022,2.421.067,3.287v.244c0,2.958-3.089,3.134-3.287,3.134a.487.487,0,0,1-.489-.334c-.133-.467-.534-1.177-2.4-1.932-.178-.067-.244-.133-.244-.2,0-.045.066-.066.2-.066h.112c.643.066,1.6.156,2.243.156a1.266,1.266,0,0,0,1.378-1.355Zm-6.067,0v9c1.533-2.534,1.689-5.51,1.711-9Z" transform="translate(95.945)" fill="#231815"/><path d="M132.157,6.912v2c2.667.755,3,2.11,3,2.778a1.286,1.286,0,0,1-1.222,1.378c-.555,0-.866-.534-.933-1.089a4.953,4.953,0,0,0-.843-2.645V14.2c0,1.11.043,3.132.043,3.932,0,.268,0,1.044.047,1.6v.045c0,.6-1.068.688-1.713.688h-.088c-.622,0-.866-.2-.866-.577V19.8c.088-.821.2-4.976.2-5.2,0-.4.066-1.777.133-3a12.22,12.22,0,0,1-.622,1.244,11.067,11.067,0,0,1-3.22,3.357.049.049,0,0,1-.047-.045.757.757,0,0,1,.135-.289,26.241,26.241,0,0,0,3.355-8.955,21.738,21.738,0,0,0-2.534.133,1.82,1.82,0,0,1-.354-.888c.665.088,2.155.156,3.22.178V3.289a27.934,27.934,0,0,1-3.044.356c-.176,0-.266-.022-.266-.066s.111-.135.311-.2c2.245-.8,4.912-2.245,5.688-3.355.577.354,2.2,1.666,2.2,2.266a.317.317,0,0,1-.356.311,1.353,1.353,0,0,1-.6-.2c-.489.156-1.044.289-1.621.422V6.334h.311c.021-.045.843-1.691,1.066-1.691a5.5,5.5,0,0,1,1.531,2c0,.178-.131.266-.309.266Zm5.711,3.51v.311a.537.537,0,0,1-.266.4c2.378.156,2.866.334,2.866.645,0,.2-.246.422-.69.487-.2,4.579-2.2,7.178-7.244,8.29a1.209,1.209,0,0,1-.356.043c-.086,0-.133-.022-.133-.043,0-.067.112-.156.358-.268,3.666-1.533,4.843-4.4,4.931-8.022,0-.311,0-.643-.021-.976a4.035,4.035,0,0,1-1.068.154c-.6,0-.843-.221-.843-.532v-.066a22.5,22.5,0,0,0,.131-2.978V5.933a14.6,14.6,0,0,0-.176-2.288,13.739,13.739,0,0,1,2.6,1h2.667a15.6,15.6,0,0,0,.733-4.6c.622.09,3.666.645,3.666,1.312,0,.223-.221.4-.665.4-.067,0-.135-.021-.223-.021a22.2,22.2,0,0,1-2.888,2.909h1.445c.244-.266.909-1.021,1.111-1.021.066,0,2.2,1,2.2,1.623,0,.244-.223.444-.71.532-.022.311-.022.667-.022.933v.778c0,.579.111,2.09.133,2.444V10c0,.733-1.466.8-1.668.8a.983.983,0,0,1-.688-.2c-.021,1.511-.043,5.4-.043,6.044,0,.667.2.956.886.956,1.357,0,1.557-.489,2.646-4.09.043-.178.111-.244.176-.244.045,0,.09.066.09.221v.067c0,.2-.133,2.688-.133,2.956a.712.712,0,0,0,.266.62,1.009,1.009,0,0,1,.469.958c0,1.111-1.023,1.844-3.6,1.844-1.979,0-3.156-.467-3.156-2.446v-.2c.023-.577.043-5.533.043-6.865Zm-.489-6.91A6.106,6.106,0,0,0,136,.6c-.086-.111-.156-.178-.156-.223,0-.022.047-.043.112-.043.778,0,3.868.71,3.868,2.665a1.392,1.392,0,0,1-1.357,1.488,1.155,1.155,0,0,1-1.089-.976m5.533,1.711h-5.088V8.111c0,.735.022,1.289.022,1.666v.09h5.044c0-.156.022-.311.022-.534Z" transform="translate(110.171 0.021)" fill="#231815"/></g></svg>