<svg xmlns="http://www.w3.org/2000/svg" width="116.313" height="218.902" viewBox="0 0 116.313 218.902">
  <g id="グループ_3613" data-name="グループ 3613" transform="translate(-901.844 -195.959)">
    <g id="グループ_1901" data-name="グループ 1901" transform="translate(72.601 -780.267)">
      <g id="パス_2357" data-name="パス 2357" transform="translate(886.399 976.227)" fill="#fff">
        <path d="M 58.15623474121094 184.5096740722656 L 0.9999964237213135 184.5096740722656 L 0.9999964237213135 1.000003695487976 L 58.15623474121094 1.000003695487976 L 58.15623474121094 184.5096740722656 Z" stroke="none"/>
        <path d="M 1.999988555908203 1.999984741210938 L 1.999988555908203 183.5096588134766 L 57.15624237060547 183.5096588134766 L 57.15624237060547 1.999984741210938 L 1.999988555908203 1.999984741210938 M -1.1444091796875e-05 -1.52587890625e-05 L 59.15624237060547 -1.52587890625e-05 L 59.15624237060547 185.5096588134766 L -1.1444091796875e-05 185.5096588134766 L -1.1444091796875e-05 -1.52587890625e-05 Z" stroke="none" fill="#000"/>
      </g>
      <text id="寄_附_金_の" data-name="寄
附
金
の" transform="translate(899.103 1017.227)" font-size="34" font-family="ShipporiMincho-Bold, Shippori Mincho" font-weight="700" letter-spacing="0.21em"><tspan x="0" y="0">寄</tspan><tspan x="0" y="44">附</tspan><tspan x="0" y="88">金</tspan><tspan x="0" y="132">の</tspan></text>
    </g>
    <g id="グループ_2027" data-name="グループ 2027" transform="translate(15.444 -708.267)">
      <g id="パス_2357-2" data-name="パス 2357" transform="translate(886.399 976.227)" fill="#fff">
        <path d="M 58.15623474121094 145.9019927978516 L 0.9999954700469971 145.9019927978516 L 0.9999954700469971 1.000008821487427 L 58.15623474121094 1.000008821487427 L 58.15623474121094 145.9019927978516 Z" stroke="none"/>
        <path d="M 1.999996185302734 1.999984741210938 L 1.999996185302734 144.9019622802734 L 57.15623474121094 144.9019622802734 L 57.15623474121094 1.999984741210938 L 1.999996185302734 1.999984741210938 M -3.814697265625e-06 -1.52587890625e-05 L 59.15623474121094 -1.52587890625e-05 L 59.15623474121094 146.9019622802734 L -3.814697265625e-06 146.9019622802734 L -3.814697265625e-06 -1.52587890625e-05 Z" stroke="none" fill="#000"/>
      </g>
      <text id="使_い_道" data-name="使
い
道" transform="translate(899.103 1017.227)" font-size="34" font-family="ShipporiMincho-Bold, Shippori Mincho" font-weight="700" letter-spacing="0.21em"><tspan x="0" y="0">使</tspan><tspan x="0" y="44">い</tspan><tspan x="0" y="88">道</tspan></text>
    </g>
  </g>
</svg>
