<svg xmlns="http://www.w3.org/2000/svg" width="116.156" height="247.53" viewBox="0 0 116.156 247.53">
  <g id="グループ_3614" data-name="グループ 3614" transform="translate(-901.922 -3356.778)">
    <g id="グループ_2023" data-name="グループ 2023" transform="translate(383.446 -176.508)">
      <g id="パス_2530" data-name="パス 2530" transform="translate(575.476 3533.286)" fill="#fff">
        <path d="M 58.15624237060547 194.529541015625 L 0.9999904632568359 194.529541015625 L 0.9999904632568359 1.000012874603271 L 58.15624237060547 1.000012874603271 L 58.15624237060547 194.529541015625 Z" stroke="none"/>
        <path d="M 2.000011444091797 2 L 2.000011444091797 193.5295257568359 L 57.15621948242188 193.5295257568359 L 57.15621948242188 2 L 2.000011444091797 2 M 1.1444091796875e-05 0 L 59.15621948242188 0 L 59.15621948242188 195.5295257568359 L 1.1444091796875e-05 195.5295257568359 L 1.1444091796875e-05 0 Z" stroke="none" fill="#000"/>
      </g>
      <g id="パス_2531" data-name="パス 2531" transform="translate(518.476 3630.186)" fill="#fff">
        <path d="M 58.15623474121094 149.62939453125 L 0.9999954700469971 149.62939453125 L 0.9999954700469971 1.000009655952454 L 58.15623474121094 1.000009655952454 L 58.15623474121094 149.62939453125 Z" stroke="none"/>
        <path d="M 1.999992370605469 2 L 1.999992370605469 148.6293792724609 L 57.15621948242188 148.6293792724609 L 57.15621948242188 2 L 1.999992370605469 2 M -7.62939453125e-06 0 L 59.15621948242188 0 L 59.15621948242188 150.6293792724609 L -7.62939453125e-06 150.6293792724609 L -7.62939453125e-06 0 Z" stroke="none" fill="#000"/>
      </g>
      <text id="活_用_事_例" data-name="活
用
事
例" transform="translate(588.054 3576.186)" font-size="34" font-family="ShipporiMincho-Bold, Shippori Mincho" font-weight="700" letter-spacing="0.21em"><tspan x="0" y="0">活</tspan><tspan x="0" y="44">用</tspan><tspan x="0" y="88">事</tspan><tspan x="0" y="132">例</tspan></text>
      <text id="ご_報_告" data-name="ご
報
告" transform="translate(531.054 3671.186)" font-size="34" font-family="ShipporiMincho-Bold, Shippori Mincho" font-weight="700" letter-spacing="0.21em"><tspan x="0" y="0">ご</tspan><tspan x="0" y="44">報</tspan><tspan x="0" y="88">告</tspan></text>
    </g>
  </g>
</svg>
