<svg id="グループ_2248" data-name="グループ 2248" xmlns="http://www.w3.org/2000/svg" width="320.642" height="80.723" viewBox="0 0 320.642 80.723">
  <g id="グループ_2232" data-name="グループ 2232" transform="translate(0 0)">
    <g id="長方形_1713" data-name="長方形 1713" transform="translate(0 0)" fill="#fff" stroke="#707070" stroke-width="1">
      <rect width="320.642" height="80.723" stroke="none"/>
      <rect x="0.5" y="0.5" width="319.642" height="79.723" fill="none"/>
    </g>
  </g>
  <g id="グループ_2247" data-name="グループ 2247" transform="translate(28.683 11.237)">
    <path id="パス_2666" data-name="パス 2666" d="M112.01,52.245a19.217,19.217,0,0,0,8.843,4.278,9.886,9.886,0,0,0-1.287,2.065,20.52,20.52,0,0,1-4.932-2.09,15.01,15.01,0,0,1-4.2-3.473c.024.339.024.339.048.85.048.9.048.922.048,1.117v1.482A12.036,12.036,0,0,0,110.7,59h-2.5a14.725,14.725,0,0,0,.17-2.527V55.016c0-.267.048-1.263.1-1.943-2.308,2.575-4.568,4.008-8.746,5.491A7.21,7.21,0,0,0,98.333,56.6a18.64,18.64,0,0,0,8.455-4.35h-4.956a20.308,20.308,0,0,0-2.818.147V50.157a19.835,19.835,0,0,0,2.818.147h6.511a7.844,7.844,0,0,0-.1-1.458h2.405a7.8,7.8,0,0,0-.1,1.458h6.729a19.088,19.088,0,0,0,2.844-.147v2.236a20.894,20.894,0,0,0-2.868-.147ZM104.7,45.808a36.889,36.889,0,0,1-4.373,2.5,9.865,9.865,0,0,0-.972.51L98.5,46.756a22,22,0,0,0,5.662-2.818Zm-4.105-7.677a26.883,26.883,0,0,1,3.644,3.474l-1.482,1.53a20.156,20.156,0,0,0-3.644-3.571Zm7.191,1.021a11.41,11.41,0,0,0,.826-2.527l2.26.315c-.559,1.362-.584,1.41-.947,2.212h2.186a13.04,13.04,0,0,0,1.823-.073,13.119,13.119,0,0,0-.073,1.944v5.442a18.125,18.125,0,0,0,.073,1.992c-.51-.049-1.093-.073-1.775-.073h-5.174c-.7,0-1.336.024-1.847.073.049-.584.073-1.021.073-1.968V41a14.392,14.392,0,0,0-.073-1.92,13.449,13.449,0,0,0,1.9.073Zm-.608,3.692h4.713V40.925h-4.713Zm0,3.766h4.713V44.571h-4.713Zm8.164-2.6A49.7,49.7,0,0,1,120.709,47l-1.215,1.749a33.5,33.5,0,0,0-5.273-3.183Zm4.713-4.519a30.668,30.668,0,0,1-4.179,3.887L114.489,41.9a17.848,17.848,0,0,0,3.911-3.838Z" transform="translate(-38.058 -21.146)" fill="#323232"/>
    <path id="パス_2665" data-name="パス 2665" d="M132.318,46.735a16.452,16.452,0,0,0,3.062,5.126,14.5,14.5,0,0,0,6.924,4.179,7.987,7.987,0,0,0-1.385,2.284,17.111,17.111,0,0,1-10.009-9.767,13.4,13.4,0,0,1-3.62,5.929,16.972,16.972,0,0,1-6.074,3.74,6.359,6.359,0,0,0-1.384-2.089c3.3-1.143,5.3-2.405,6.924-4.446a11.844,11.844,0,0,0,2.332-4.956h-5.029a25.851,25.851,0,0,0-2.866.146V44.6a23.629,23.629,0,0,0,2.842.146H129.4a29.752,29.752,0,0,0,.218-4.616h-6.365a20.035,20.035,0,0,0-2.964.17v-2.4a20.206,20.206,0,0,0,2.988.17h15.572a20.282,20.282,0,0,0,2.964-.17v2.4a19.9,19.9,0,0,0-2.94-.17h-6.948a38.007,38.007,0,0,1-.243,4.616h6.365a25.1,25.1,0,0,0,2.892-.146V46.88a25.851,25.851,0,0,0-2.866-.146Z" transform="translate(-32.326 -20.807)" fill="#323232"/>
    <path id="パス_2664" data-name="パス 2664" d="M146.617,48.023c-.1.364-.122.437-.291,1.068a27.224,27.224,0,0,1-3.159,7.58A8.792,8.792,0,0,0,141,55.286a20.957,20.957,0,0,0,3.257-8.018Zm.51-10.5a12.5,12.5,0,0,0,3.036,1.167,26,26,0,0,0,5.806.923,3.315,3.315,0,0,0,.437-.024L156.359,42a5.577,5.577,0,0,0-1.968.826c-1.725,1.045-2.623,2.137-2.623,3.134a2.055,2.055,0,0,0,.243.9c.266.462.266.462,1.846,2.163s2.212,2.94,2.212,4.373a4.15,4.15,0,0,1-1.507,3.182,4.847,4.847,0,0,1-3.158,1.045,7.666,7.666,0,0,1-4.98-1.943,11.622,11.622,0,0,0,.608-2.454,6.176,6.176,0,0,0,4.227,2.041,1.975,1.975,0,0,0,2.162-1.919,3.276,3.276,0,0,0-.535-1.653,11.514,11.514,0,0,0-1.725-2.186,5.151,5.151,0,0,1-1.7-3.5,4.938,4.938,0,0,1,2.26-3.716c.339-.243.437-.315,1.213-.827a17.242,17.242,0,0,1-5.9-1.409,7.109,7.109,0,0,0-.826-.291Zm11.807,9.4a26.861,26.861,0,0,1,4.056,8.14l-2.38,1.141a22.37,22.37,0,0,0-1.628-4.568,16.708,16.708,0,0,0-2.21-3.79Z" transform="translate(-26.68 -20.905)" fill="#323232"/>
    <path id="パス_2663" data-name="パス 2663" d="M164.751,38.256a14.2,14.2,0,0,0,2.576.147c2.21,0,5.078-.123,7.458-.317a2.666,2.666,0,0,0,1.36-.291l1.311,1.823a5.243,5.243,0,0,0-1.239,1,52,52,0,0,1-7.7,6.389l.048.073a11.9,11.9,0,0,1,5.466-1.288c4.082,0,6.731,2.09,6.731,5.32a5.792,5.792,0,0,1-3.255,5.224,11.729,11.729,0,0,1-5.711,1.336,8.191,8.191,0,0,1-4.494-1.02,3.318,3.318,0,0,1-1.458-2.746c0-1.846,1.677-3.207,3.913-3.207a5.074,5.074,0,0,1,4.129,2.018A6.813,6.813,0,0,1,175,54.947a6.081,6.081,0,0,0,1.823-.875,3.537,3.537,0,0,0,1.481-2.891c0-2.138-1.894-3.425-4.981-3.425a15.335,15.335,0,0,0-10.107,4.105L161.812,49.7c2.186-1.165,7.9-5.855,11.054-9.086l.413-.413-.025-.024c-.874.122-3.474.291-7.166.437a9.408,9.408,0,0,0-1.215.122Zm5.006,14.383c-1,0-1.629.486-1.629,1.263,0,1.069,1.239,1.725,3.281,1.725a8.008,8.008,0,0,0,1.384-.1c-.485-1.919-1.5-2.891-3.036-2.891" transform="translate(-21.131 -20.832)" fill="#323232"/>
    <path id="パス_2662" data-name="パス 2662" d="M181.661,41.9a14.674,14.674,0,0,0,2.21.122,54.937,54.937,0,0,0,6.779-.486,9.949,9.949,0,0,0-.464-1.093c-.217-.559-.559-1.384-.874-2.21a6.409,6.409,0,0,0-.339-.706l2.649-.364a20,20,0,0,0,1.433,4.081,31.534,31.534,0,0,0,5.9-1.482l.317,2.429c-.584.1-.778.146-1.6.339-1.749.389-1.8.413-3.764.8.8,1.555,1.359,2.6,1.652,3.086.728,1.191,1.725,2.7,2.623,3.887l-2.333,1.141a4.355,4.355,0,0,0-1.675-1.02,12.1,12.1,0,0,0-3.986-.583,8.227,8.227,0,0,0-4.348.922,2.475,2.475,0,0,0-1.191,2.042c0,1.7,1.92,2.673,5.323,2.673a16.254,16.254,0,0,0,7.141-1.6l.339,2.6a22.55,22.55,0,0,1-7.41,1.311c-3.254,0-5.635-.7-6.8-2.017a4.273,4.273,0,0,1-1.092-2.891,4.63,4.63,0,0,1,2.4-3.911,9.585,9.585,0,0,1,5.2-1.191,11.574,11.574,0,0,1,4.616.754l-.219-.315a28.464,28.464,0,0,1-2.259-3.79c-.219-.438-.267-.512-.413-.778a70.48,70.48,0,0,1-8.625.607c-.536.025-.632.025-1.021.073Z" transform="translate(-15.838 -21.002)" fill="#323232"/>
    <path id="パス_2660" data-name="パス 2660" d="M206.432,37.2a42.63,42.63,0,0,0,1.7,7.8c1.167-.461,1.919-.727,3.158-1.167l3.255-1.092a6.285,6.285,0,0,0,.9-.365l.923,2.552a55.489,55.489,0,0,0-7.749,2.356c-3.718,1.433-5.563,3.06-5.563,4.93,0,1.191.754,1.968,2.284,2.359a18.883,18.883,0,0,0,3.838.314,26.12,26.12,0,0,0,7.361-.923l.219,2.8c-.509.024-.583.024-1.895.17a47.611,47.611,0,0,1-5.563.341c-3.257,0-5.272-.366-6.779-1.241a4.346,4.346,0,0,1-2.065-3.885,5.537,5.537,0,0,1,2.163-4.2,15.09,15.09,0,0,1,3.255-2.065,53.542,53.542,0,0,1-1.7-6.658,7.273,7.273,0,0,0-.388-1.578Z" transform="translate(-10.827 -20.991)" fill="#323232"/>
    <path id="パス_2634" data-name="パス 2634" d="M218.329,47.107a6.814,6.814,0,0,0,1.068.072c.2,0,.293,0,.778-.023.2-.243.2-.243.584-.754.194-.243.413-.535.826-1.117a30.947,30.947,0,0,0-3.159-3.79l1.167-1.677c.365.413.485.535.778.851a14.953,14.953,0,0,0,2.041-4.082l2.015.778a7.221,7.221,0,0,0-.533.9,40.132,40.132,0,0,1-2.284,3.889c.194.266.365.461.462.583.413.485.461.559.68.826a28.045,28.045,0,0,0,2.452-4.324l1.9,1.021a8.237,8.237,0,0,0-.778,1.141c-.972,1.555-2.866,4.276-3.961,5.661,1.6-.1,1.92-.122,3.087-.243A18.331,18.331,0,0,0,224.6,44.8l1.506-.754a32.228,32.228,0,0,1,1.919,5l-1.676.754c-.146-.583-.2-.778-.317-1.215-.631.072-.8.1-1.82.2v7.774a14.234,14.234,0,0,0,.146,2.527h-2.261a14.672,14.672,0,0,0,.147-2.527v-7.6c-.706.048-1.141.072-2.041.12a11.242,11.242,0,0,0-1.629.171Zm2.916,3.45a29.228,29.228,0,0,1-1.022,7.119l-1.8-.875a20.578,20.578,0,0,0,1-6.584Zm5.32-.413a39.593,39.593,0,0,1,.874,5.781l-1.724.438a30.56,30.56,0,0,0-.731-5.856Zm11.3-9.209a17.984,17.984,0,0,0,2.236-.1,25.05,25.05,0,0,0-.1,2.527V56.412c0,1.871-.535,2.26-3.036,2.26-.827,0-1.215,0-1.919-.049a5.9,5.9,0,0,0-.512-2.21,16.881,16.881,0,0,0,2.455.219c.754,0,1-.146,1-.608v-4.4a8.995,8.995,0,0,0-.947,1.652,11.7,11.7,0,0,1-1.871-2.964,13.518,13.518,0,0,1-1.117-3.742,13.017,13.017,0,0,1-2.818,6.851,6.765,6.765,0,0,0-1.093-1.725v4.689a23.624,23.624,0,0,0,.1,2.623h-2.21a20.946,20.946,0,0,0,.123-2.769V43.317c0-1.141-.025-1.7-.073-2.478a17.986,17.986,0,0,0,2.234.1h2.623V39.26a16.222,16.222,0,0,0-.144-2.26h2.332a15.3,15.3,0,0,0-.146,2.26v1.676Zm-7.725,10.278a8.821,8.821,0,0,0,1.773-2.842,14.09,14.09,0,0,0,1.02-5.443h-2.793Zm4.835-8.285a12.341,12.341,0,0,0,1.264,5.32,9.828,9.828,0,0,0,1.748,2.746V42.928Z" transform="translate(-6.06 -21.155)" fill="#323232"/>
    <path id="パス_2633" data-name="パス 2633" d="M243.8,40.137c-.9.2-1.362.293-2.7.51a5.78,5.78,0,0,0-.85-1.871,22.455,22.455,0,0,0,6.317-1.53,6.7,6.7,0,0,0,1.02-.583l1.287,1.8c-.242.1-.362.146-.632.267a16.427,16.427,0,0,1-2.331.85V43.1h.923a10.233,10.233,0,0,0,1.677-.1v2.113a10.287,10.287,0,0,0-1.677-.1h-.851a12.276,12.276,0,0,0,2.77,4.326,11.392,11.392,0,0,0-.947,1.894,13.425,13.425,0,0,1-2.042-3.619c.073.728.147,2.4.147,3.134v5.418a21.047,21.047,0,0,0,.146,2.916h-2.405a22.99,22.99,0,0,0,.146-2.916V51.313c0-.607.1-2.551.147-3.353A17.287,17.287,0,0,1,240.69,54.2a6.9,6.9,0,0,0-1.092-2.065,17.7,17.7,0,0,0,2.478-3.62,22.165,22.165,0,0,0,1.433-3.5h-1.385a10.64,10.64,0,0,0-1.992.123V42.98a10.75,10.75,0,0,0,1.992.123H243.8Zm12.05,1.555a20.4,20.4,0,0,0,2.042-4.859l2.233.752a31.21,31.21,0,0,1-2.087,4.107h1.045a16.183,16.183,0,0,0,1.991-.1,11.075,11.075,0,0,0-.1,1.652V47.5a13.819,13.819,0,0,0,.1,1.773,16.182,16.182,0,0,0-1.991-.1h-1.264V56.2c0,.51.146.584,1.264.584.727,0,1.02-.1,1.165-.413a10.686,10.686,0,0,0,.293-3.183,5.348,5.348,0,0,0,1.942.923c-.17,2.5-.341,3.279-.754,3.887-.461.631-1.14.8-3.352.8-2.138,0-2.673-.388-2.673-1.967V49.175h-1.847a14.713,14.713,0,0,1-1.045,5.418,8.685,8.685,0,0,1-4.348,4.592,6.388,6.388,0,0,0-1.554-1.773,7.5,7.5,0,0,0,3.96-3.692,11.233,11.233,0,0,0,.851-4.544h-.583a14.829,14.829,0,0,0-1.9.1c.048-.607.073-1.167.073-1.8V43.32c0-.535-.025-1.143-.073-1.725a15.466,15.466,0,0,0,1.919.1Zm-3.813-.243a14.086,14.086,0,0,0-2.042-3.716l1.991-.923a22.911,22.911,0,0,1,2.042,3.742Zm-.632,5.806h7.458V43.612H251.4Z" transform="translate(-0.388 -21.135)" fill="#323232"/>
    <path id="パス_2670" data-name="パス 2670" d="M68.5,37.754c.109.543-.144.692-.565.331l-4.521-3.891a.589.589,0,0,1,.092-1.016l2.885-1.688a.588.588,0,0,1,.93.417Z" transform="translate(-47.436 -22.543)" fill="#9b7331"/>
    <path id="パス_2672" data-name="パス 2672" d="M66.348,39.638c.461.307.388.592-.166.633l-5.948.446a.589.589,0,0,1-.652-.784l.846-3.234a.588.588,0,0,1,.953-.364Z" transform="translate(-48.4 -21.256)" fill="#9b7331"/>
    <path id="パス_2671" data-name="パス 2671" d="M70.415,37.149c.042.552.327.627.633.166l3.3-4.968a.588.588,0,0,0-.364-.953l-3.234-.846a.589.589,0,0,0-.784.652Z" transform="translate(-45.623 -22.773)" fill="#9b7331"/>
    <path id="パス_2669" data-name="パス 2669" d="M81.478,38.313A1.387,1.387,0,0,1,80.094,39.7H76.4a1.386,1.386,0,0,0-1.382,1.383v2.063a1.387,1.387,0,0,1-1.383,1.383H64.27a1.386,1.386,0,0,0-1.382,1.383v3.453a1.386,1.386,0,0,0,1.382,1.383h6.285a1.386,1.386,0,0,1,1.382,1.383v.253a1.387,1.387,0,0,0,1.383,1.382h2.488a1.387,1.387,0,0,0,1.383-1.382V50.051c0-.383.622-.694,1.382-.694h6.05a1.387,1.387,0,0,0,1.383-1.383v-4.54a1.387,1.387,0,0,1,1.383-1.383H87.7a1.387,1.387,0,0,0,1.383-1.383V35.891A1.386,1.386,0,0,0,87.7,34.509H82.861a1.386,1.386,0,0,0-1.383,1.382Z" transform="translate(-47.51 -21.71)" fill="#be2026"/>
    <path id="長方形_1711" data-name="長方形 1711" d="M1.092,0H4.215A1.091,1.091,0,0,1,5.306,1.091V2.844A1.092,1.092,0,0,1,4.214,3.936H1.092A1.092,1.092,0,0,1,0,2.844V1.092A1.092,1.092,0,0,1,1.092,0Z" transform="translate(18.049 30.061)" fill="#be2026"/>
    <rect id="長方形_1712" data-name="長方形 1712" width="7.107" height="5.396" rx="1.092" transform="translate(9.833 30.062)" fill="#be2026"/>
    <path id="パス_2673" data-name="パス 2673" d="M56.348,51.9a.865.865,0,1,0,.864-.864.867.867,0,0,0-.864.864" transform="translate(-49.255 -17.303)" fill="#be2026"/>
    <path id="パス_2667" data-name="パス 2667" d="M81.912,25.757a1.387,1.387,0,0,0-1.383,1.383v4.8c0,.761-.312,1.174-.8,1.283a1.332,1.332,0,0,0-1.094,1.618,1.664,1.664,0,0,0,1.648,1.311,1.261,1.261,0,0,0,1.3-1.035c.089-.5.521-.842,1.282-.842h7.091a1.387,1.387,0,0,0,1.383-1.383V27.14a1.387,1.387,0,0,0-1.383-1.383Z" transform="translate(-43.318 -24.044)" fill="#be2026"/>
    <path id="パス_2668" data-name="パス 2668" d="M97.635,67.269a26.325,26.325,0,0,0,1.321-31.252.676.676,0,1,0-1.121.756,24.969,24.969,0,0,1-1.1,29.456H87.438a4.309,4.309,0,0,0,1.219-1.968A2.687,2.687,0,0,0,88.2,61.9a2.977,2.977,0,0,0-2.072-1.117,7.3,7.3,0,0,0-5.138,2,27.368,27.368,0,0,0-3.79,4.245,27.435,27.435,0,0,0-3.79-4.245,7.3,7.3,0,0,0-5.139-2A2.979,2.979,0,0,0,66.2,61.9a2.69,2.69,0,0,0-.452,2.361,4.312,4.312,0,0,0,1.217,1.966H57.48A25,25,0,0,1,86.02,27.393.676.676,0,1,0,86.5,26.13,26.344,26.344,0,0,0,56.458,67.116a.659.659,0,0,0,.274.347,26.447,26.447,0,0,0,10.9,7.889c-.681.423-1.392.841-2.148,1.245a.677.677,0,1,0,.641,1.192c1.127-.605,2.165-1.232,3.131-1.861a26.373,26.373,0,0,0,15.827-.044c.985.645,2.044,1.287,3.2,1.905a.676.676,0,1,0,.64-1.192c-.783-.421-1.519-.852-2.224-1.291a26.467,26.467,0,0,0,10.831-7.9.638.638,0,0,0,.106-.133m-15.789-3.44a6.125,6.125,0,0,1,4.129-1.7,1.652,1.652,0,0,1,1.158.6,1.34,1.34,0,0,1,.213,1.2c-.263,1.029-1.424,2.058-3.184,2.827a14.566,14.566,0,0,1-5.665.808,25.045,25.045,0,0,1,3.349-3.732m-14.572-1.1a1.647,1.647,0,0,1,1.158-.6,3.016,3.016,0,0,1,.308-.015,6.618,6.618,0,0,1,3.822,1.716,25.046,25.046,0,0,1,3.349,3.732,14.629,14.629,0,0,1-5.665-.808c-1.762-.766-2.922-1.8-3.186-2.825a1.344,1.344,0,0,1,.214-1.2m-8.655,4.854H68.86c.269.142.547.281.844.409a15.049,15.049,0,0,0,5.653.931l.276,0a39.814,39.814,0,0,1-6.57,5.511,25.063,25.063,0,0,1-10.444-6.849m18.487,8.184a24.978,24.978,0,0,1-6.392-.83A38.762,38.762,0,0,0,77.2,69.215,38.744,38.744,0,0,0,83.636,74.9a25.006,25.006,0,0,1-6.53.869m8.173-1.377a39.885,39.885,0,0,1-6.5-5.469l.274,0a15.041,15.041,0,0,0,5.653-.931c.3-.128.576-.267.844-.409H95.593A25.093,25.093,0,0,1,85.279,74.39" transform="translate(-50.748 -24.404)" fill="#be2026"/>
  </g>
</svg>
