<svg id="グループ_2255" data-name="グループ 2255" xmlns="http://www.w3.org/2000/svg" width="320.642" height="80.723" viewBox="0 0 320.642 80.723">
  <g id="長方形_1713" data-name="長方形 1713" transform="translate(0)" fill="#fff" stroke="#707070" stroke-width="1">
    <rect width="320.642" height="80.723" stroke="none"/>
    <rect x="0.5" y="0.5" width="319.642" height="79.723" fill="none"/>
  </g>
  <g id="グループ_2237" data-name="グループ 2237" transform="translate(34.34 23.502)">
    <g id="グループ_2235" data-name="グループ 2235" transform="translate(0 0)">
      <path id="パス_2616" data-name="パス 2616" d="M420.11,32.257c-.771-.772-1.479-1.475-2.141-2.122a.975.975,0,0,0-.55-.247,15.49,15.49,0,0,0-4,.263c-.339.08-.288.325-.126.47,1.475,1.307,5.232,5.094,5.632,5.473,1.091,1.037,3.317,1.011,5,.339a.255.255,0,0,0,.076-.458c-.848-.67-2.579-2.4-3.895-3.719" transform="translate(-388.339 -24.101)" fill="#ac0003"/>
      <path id="パス_2617" data-name="パス 2617" d="M434.907,33.352a11.905,11.905,0,0,0-3.954-4.343,18.364,18.364,0,0,0-10.521-3.417,20.758,20.758,0,0,0-9.927,2.694,18.8,18.8,0,0,0-8.775,13.159,18.543,18.543,0,0,0,3.018,13.021,7.532,7.532,0,0,0,1.087,1.236,3.083,3.083,0,0,0,.6.324,13.18,13.18,0,0,0,5,.906c.34-.019.351-.377.069-.562a15.1,15.1,0,0,1-6.416-12.239,15.26,15.26,0,0,1,6.08-11.987,15.534,15.534,0,0,1,11.2-2.847,14.986,14.986,0,0,1,7.191,3.114c1.625,1.3,2.489,2.694,2.459,3.754,0,3.176-4.23,4.181-4.893,4.236s-.442.466.007.619c3.118,1.128,6.384.138,7.8-2.342a5.722,5.722,0,0,0-.031-5.328" transform="translate(-392.41 -25.592)" fill="#ac0003"/>
      <path id="パス_2613" data-name="パス 2613" d="M430.815,51.225a.77.77,0,0,0,.024-.646c-.316-.955-1.419-4.273-1.434-4.317-.089-.274-.374-.382-.515.031a20.618,20.618,0,0,1-5.01,8.647,15.089,15.089,0,0,1-18.038,2.147,15.009,15.009,0,0,1-7.5-12.963,14.7,14.7,0,0,1,8.031-13.22,2.615,2.615,0,0,0,.654-.531,19.621,19.621,0,0,1,5.256-4.253c.234-.13.217-.524-.184-.509a18.558,18.558,0,0,0,1.372,37.074c6.272,0,13.347-3.111,17.348-11.461" transform="translate(-394.782 -25.586)" fill="#ac0003"/>
      <path id="パス_2614" data-name="パス 2614" d="M429.275,47.18s-2.793-.636-2.9-.654a.28.28,0,0,0-.358.184c-.716,1.673-2.858,2.817-3.7,3.294a1.6,1.6,0,0,0-.4.309,20.347,20.347,0,0,1-5.908,4.758c-.174.095-.131.255.146.255a18.468,18.468,0,0,0,10.6-3.993,8.046,8.046,0,0,0,2.728-3.765.273.273,0,0,0-.211-.388" transform="translate(-387.378 -18.259)" fill="#ac0003"/>
      <path id="パス_2618" data-name="パス 2618" d="M461.844,51.2c0-1.78,1.244-4.4,5.087-4.281A6.2,6.2,0,0,1,472.3,51.16a5.863,5.863,0,0,0,3.415-3.378c.631-1.939-.624-5.584-6.191-5.658a12.635,12.635,0,0,0-5.467,1.36,37.288,37.288,0,0,0-4.729,3.186l-2.548-3.357s10.873-8.5,12.373-9.8c-2.7.211-7.37.725-8.254.8a31.989,31.989,0,0,0-.2-4.208c6.166-.007,13.209-.533,13.209-.533s.687,2.579,1.1,3.764c-1.2,1.075-5.7,4.538-6.8,5.595,4.272-1.34,8.675.189,10.748,2.991,2.7,3.656,1.908,9.28-3.8,12.318-3.533,1.879-13.316,3.637-13.316-3.033m4.954-1.255c-1.557-.209-1.978.926-1.386,1.839.608.936,2.363.756,3.484.515a2.862,2.862,0,0,0-2.1-2.354" transform="translate(-373.052 -24.201)" fill="#ac0003"/>
      <path id="パス_2619" data-name="パス 2619" d="M476.952,46.529c2.186-8.083,12.751-4.69,12.751-4.69a44.982,44.982,0,0,1-3.175-4.05,44.9,44.9,0,0,1-9.737.411c.07,0,.07-4.22,0-4.22a37.016,37.016,0,0,0,7.471.016c-.4-.841-1.363-2.6-1.533-3.193.778-.209,2.628-.863,3.987-1.386a32.763,32.763,0,0,0,1.762,3.7,28.934,28.934,0,0,0,6.278-2.914c0,.024,1.151,2.358,2.024,3.712a31.38,31.38,0,0,1-6.212,2.759,30.318,30.318,0,0,0,6.848,7.54c.011.008-1.456,2.311-2.232,3.742-.635-.239-6.312-3.236-9.764-3.236-3.912,0-4.438,2.529-4.393,3.453a3.78,3.78,0,0,0,2.335,3.033c3.266,1.526,9.94-.3,10.889-.567.1.75.494,3.4.6,4.246-16.817,4.326-18.738-5.275-17.9-8.358" transform="translate(-366.04 -24.251)" fill="#ac0003"/>
      <path id="パス_2620" data-name="パス 2620" d="M518.254,56.1c-.617-.8-2.081-2.486-2.711-3.2,2.077-1.219,6.228-3.459,7.07-7.915h-11.63V40.855H522.65a44.678,44.678,0,0,0-.319-4.562c-2.323.7-4.841,1.513-7.394,2.03a22.352,22.352,0,0,0-1.365-3.989,61.145,61.145,0,0,0,7.718-1.93,61.385,61.385,0,0,0,8.387-3.294,25.481,25.481,0,0,0,2.417,3.4,35.049,35.049,0,0,1-5.7,2.424c.321,2.176.39,5.918.39,5.918h9.085v4.124h-9.1c-.59,4.932-2.783,7.637-8.515,11.117" transform="translate(-354.057 -24.36)" fill="#ac0003"/>
      <path id="パス_2621" data-name="パス 2621" d="M584.476,55.556c-.953-.883-7.833-7.207-9.18-8.646A39.036,39.036,0,0,1,564.73,55.5c-.733-1.3-2.382-3.594-2.382-3.594,9.427-5.129,13.936-12.081,14.231-17.04H565.593V30.652h16.1a26.2,26.2,0,0,1-3.866,13.05c1.951,1.918,7.29,6.847,9.715,8.778-.627.565-2.571,2.632-3.068,3.076" transform="translate(-336.055 -23.819)" fill="#ac0003"/>
      <path id="パス_2622" data-name="パス 2622" d="M498.913,39.042c-1.372-2.292-3.6-5.911-4.381-7.567,0,0,2.215-1.323,3.625-2.3a64.11,64.11,0,0,0,4.224,7.424,53.567,53.567,0,0,1,9.993-4.189,39.241,39.241,0,0,0,1.218,4.065c-18.489,5.55-16.97,14.279-9.773,15.26,2.624.358,6.852-.443,10.292-1.554a34.6,34.6,0,0,0,.71,4.262c-1.178.346-9.445,3.175-15.374.465-5.5-2.515-7.141-9.469-.535-15.867" transform="translate(-359.823 -24.336)" fill="#ac0003"/>
      <path id="パス_2623" data-name="パス 2623" d="M531.341,54.594V51.022l11.4-.02-.1-5.143h-9.63V42.177c0,.015,9.63,0,9.63,0V37h-11.3c-.041-.149,0-3.557,0-3.557h15.407c-.07,0-.074-.112-.074,0l.074,21.117Z" transform="translate(-346.929 -22.857)" fill="#ac0003"/>
      <path id="パス_2624" data-name="パス 2624" d="M561.082,55.992c-.063-2.75-.189-14.1-.007-16.982,0,0,1.534-1.349,3.128-2.956a35.533,35.533,0,0,0,3.436-4.1c-.813-.573-3.3-2.544-3.3-2.544-3.039,4.385-9.646,9.043-12.2,10.423A53.3,53.3,0,0,1,545.133,43s1.4,2.882,1.857,3.783a54.8,54.8,0,0,0,6.292-2.808,38.663,38.663,0,0,0,3.457-2.049c.147,2.122.134,10.921,0,14.065Z" transform="translate(-342.089 -24.255)" fill="#ac0003"/>
      <path id="パス_2625" data-name="パス 2625" d="M447.179,53.991a9.066,9.066,0,0,1-7.383-3.565,40.135,40.135,0,0,0,2.717-3.284c.663.862,2.074,2.466,3.88,2.677s3.375-.867,2.744-2.928c-.7-2.3-3.618-4.051-5.083-6.265a4.606,4.606,0,0,1,.474-5.509c.724.4,2.583,1.341,3.773,1.887-1.161,1.387-.993,2.1-.254,2.913,1.434,1.449,4.844,4.548,5.4,7.525.76,4.105-3.2,6.55-6.264,6.55" transform="translate(-379.006 -22.255)" fill="#ac0003"/>
      <path id="パス_2626" data-name="パス 2626" d="M455.3,49.792a31.507,31.507,0,0,0-5.318-9.343c.652-.367,2.521-1.55,3-1.9a33.084,33.084,0,0,1,6,9.114c-.51.312-2.4,1.345-3.684,2.128" transform="translate(-375.435 -21.051)" fill="#ac0003"/>
      <path id="パス_2627" data-name="パス 2627" d="M434.093,48.108c1.53-2.623,5.049-7.9,6.164-9.3a34.757,34.757,0,0,0,2.94,1.916,73.844,73.844,0,0,0-5.141,8.927c-.192-.1-3.11-1.23-3.962-1.538" transform="translate(-381.005 -20.962)" fill="#ac0003"/>
      <path id="パス_2628" data-name="パス 2628" d="M452.208,37.306a100.194,100.194,0,0,1-10.13-4.459s1.047-2.82,1.274-3.417c1.391.706,7.93,3.255,9.849,3.852a33.017,33.017,0,0,0-.993,4.024" transform="translate(-378.206 -24.248)" fill="#ac0003"/>
    </g>
  </g>
</svg>
