<svg xmlns="http://www.w3.org/2000/svg" xmlns:xlink="http://www.w3.org/1999/xlink" width="27.835" height="27.107" viewBox="0 0 27.835 27.107">
  <defs>
    <clipPath id="clip-path">
      <rect id="長方形_1721" data-name="長方形 1721" width="27.835" height="27.107" fill="none"/>
    </clipPath>
  </defs>
  <g id="グループ_2302" data-name="グループ 2302" transform="translate(0 0)">
    <g id="グループ_2301" data-name="グループ 2301" transform="translate(0 0)" clip-path="url(#clip-path)">
      <path id="パス_2695" data-name="パス 2695" d="M9,27.107a1.222,1.222,0,0,1-.583-.149,1.19,1.19,0,0,1-.61-1.038V22.289A11.026,11.026,0,0,1,0,11.6C0,5.2,6.244,0,13.919,0S27.838,5.2,27.838,11.6c0,6.274-5.016,11.076-11.971,11.519L9.625,26.934A1.2,1.2,0,0,1,9,27.107M13.919,2.379C7.556,2.379,2.382,6.515,2.382,11.6c0,4.252,2.59,7.49,6.931,8.665a1.187,1.187,0,0,1,.88,1.148V23.8l4.689-2.866a1.208,1.208,0,0,1,.571-.172c5.8-.262,10-4.112,10-9.161,0-5.082-5.174-9.218-11.537-9.218" transform="translate(0 -0.001)"/>
      <path id="パス_2696" data-name="パス 2696" d="M5.448,4.982A1.64,1.64,0,1,1,3.809,3.344,1.638,1.638,0,0,1,5.448,4.982" transform="translate(4.279 6.599)"/>
      <path id="パス_2697" data-name="パス 2697" d="M7.407,4.982A1.64,1.64,0,1,1,5.768,3.344,1.638,1.638,0,0,1,7.407,4.982" transform="translate(8.145 6.599)"/>
      <path id="パス_2698" data-name="パス 2698" d="M9.366,4.982A1.64,1.64,0,1,1,7.727,3.344,1.638,1.638,0,0,1,9.366,4.982" transform="translate(12.011 6.599)"/>
    </g>
  </g>
</svg>
