<svg xmlns="http://www.w3.org/2000/svg" xmlns:xlink="http://www.w3.org/1999/xlink" width="15.79" height="14.577" viewBox="0 0 15.79 14.577">
  <defs>
    <clipPath id="clip-path">
      <rect id="長方形_1681" data-name="長方形 1681" width="15.79" height="14.577" fill="#fff"/>
    </clipPath>
  </defs>
  <g id="グループ_2066" data-name="グループ 2066" clip-path="url(#clip-path)">
    <path id="パス_2578" data-name="パス 2578" d="M7.6,11.834a1.786,1.786,0,1,1,1.787-1.786A1.788,1.788,0,0,1,7.6,11.834m0-2.24a.454.454,0,1,0,.456.454A.456.456,0,0,0,7.6,9.594" transform="translate(1.931 2.742)" fill="#fff"/>
    <path id="パス_2579" data-name="パス 2579" d="M3.334,11.834A1.786,1.786,0,1,1,5.12,10.048a1.788,1.788,0,0,1-1.786,1.786m0-2.24a.454.454,0,1,0,.454.454.456.456,0,0,0-.454-.454" transform="translate(0.514 2.742)" fill="#fff"/>
    <path id="パス_2580" data-name="パス 2580" d="M11.754,10.432H1.737L0,3.077H12.29L13.088,0h2.7V1.332H14.119ZM2.79,9.1h7.934l1.219-4.691H1.684Z" transform="translate(0 0)" fill="#fff"/>
  </g>
</svg>
