<svg id="グループ_2097" data-name="グループ 2097" xmlns="http://www.w3.org/2000/svg" xmlns:xlink="http://www.w3.org/1999/xlink" width="26.866" height="23.581" viewBox="0 0 26.866 23.581">
  <defs>
    <clipPath id="clip-path">
      <rect id="長方形_1688" data-name="長方形 1688" width="26.866" height="23.581" fill="none"/>
    </clipPath>
  </defs>
  <g id="グループ_2097-2" data-name="グループ 2097" transform="translate(0 0)" clip-path="url(#clip-path)">
    <path id="パス_2586" data-name="パス 2586" d="M25.612,4.17a8.892,8.892,0,0,0-12.3-2.782A8.657,8.657,0,0,0,1.247,4.175,8.656,8.656,0,0,0,3.169,15.328l10.24,8.254.026-.033.029.033,10.254-8.275a8.641,8.641,0,0,0,1.9-11.136m-3.34,9.386-8.838,7.128L4.616,13.578A6.352,6.352,0,0,1,8.039,2.32a6.257,6.257,0,0,1,5.247,1.974l.064-.057.031.029A6.292,6.292,0,0,1,18.718,2.3a6.482,6.482,0,0,1,4.959,3.052,6.38,6.38,0,0,1-1.4,8.2" transform="translate(0 0)"/>
    <path id="パス_2587" data-name="パス 2587" d="M9.365,2.647,7.842,5.284,6.373,2.737,6.32,2.647H4.039L5.684,5.5H4.113V7.091H6.6l.25.434V8.2H4.113V9.794H6.855v2.9H8.831v-2.9h2.744V8.2H8.831V7.525l.25-.434h2.494V5.5H10l1.643-2.849Z" transform="translate(5.59 3.664)"/>
  </g>
</svg>
