<svg id="グループ_2263" data-name="グループ 2263" xmlns="http://www.w3.org/2000/svg" width="351.712" height="88.545" viewBox="0 0 351.712 88.545">
  <g id="グループ_2232" data-name="グループ 2232">
    <rect id="長方形_1713" data-name="長方形 1713" width="351.712" height="88.545" fill="#fff"/>
  </g>
  <g id="グループ_2247" data-name="グループ 2247" transform="translate(31.462 13.459)">
    <path id="パス_2666" data-name="パス 2666" d="M113.336,53.759c2.266,2.133,5.491,3.678,9.7,4.692a10.844,10.844,0,0,0-1.412,2.265,22.509,22.509,0,0,1-5.41-2.293,16.464,16.464,0,0,1-4.609-3.81c.026.372.026.372.053.932.053.985.053,1.011.053,1.225V58.4a13.2,13.2,0,0,0,.186,2.772h-2.744a16.152,16.152,0,0,0,.186-2.772V56.8c0-.293.053-1.385.107-2.131-2.531,2.825-5.01,4.4-9.594,6.023a7.909,7.909,0,0,0-1.519-2.159c4.078-1.093,7.089-2.638,9.274-4.771h-5.437a22.276,22.276,0,0,0-3.091.161V51.468a21.756,21.756,0,0,0,3.091.161h7.142a8.605,8.605,0,0,0-.107-1.6h2.638a8.559,8.559,0,0,0-.106,1.6h7.381a20.936,20.936,0,0,0,3.119-.161V53.92a22.919,22.919,0,0,0-3.146-.161ZM105.315,46.7a40.467,40.467,0,0,1-4.8,2.744,10.82,10.82,0,0,0-1.066.56l-.934-2.265a24.137,24.137,0,0,0,6.211-3.091Zm-4.5-8.421a29.489,29.489,0,0,1,4,3.811l-1.626,1.678a22.109,22.109,0,0,0-4-3.917ZM108.7,39.4a12.517,12.517,0,0,0,.906-2.772l2.479.346c-.613,1.494-.64,1.546-1.039,2.426h2.4a14.3,14.3,0,0,0,2-.081,14.389,14.389,0,0,0-.081,2.133v5.969a19.88,19.88,0,0,0,.081,2.186c-.56-.054-1.2-.081-1.947-.081H107.82c-.772,0-1.466.026-2.026.081.054-.641.081-1.12.081-2.159V41.423a15.789,15.789,0,0,0-.081-2.106,14.752,14.752,0,0,0,2.08.081Zm-.667,4.05h5.17v-2.1h-5.17Zm0,4.131h5.17V45.341h-5.17Zm8.955-2.851A54.509,54.509,0,0,1,122.877,48l-1.332,1.919a36.741,36.741,0,0,0-5.784-3.492Zm5.17-4.957a33.64,33.64,0,0,1-4.584,4.264l-1.519-1.626a19.577,19.577,0,0,0,4.29-4.21Z" transform="translate(-32.218 -19.646)" fill="#323232"/>
    <path id="パス_2665" data-name="パス 2665" d="M133.528,47.591a18.047,18.047,0,0,0,3.358,5.623A15.907,15.907,0,0,0,144.48,57.8a8.761,8.761,0,0,0-1.519,2.505,18.769,18.769,0,0,1-10.979-10.714,14.7,14.7,0,0,1-3.971,6.5,18.617,18.617,0,0,1-6.662,4.1,6.975,6.975,0,0,0-1.519-2.291c3.624-1.253,5.809-2.638,7.594-4.877a12.991,12.991,0,0,0,2.558-5.437h-5.516a28.357,28.357,0,0,0-3.144.16V45.246a25.92,25.92,0,0,0,3.118.16h5.89a32.634,32.634,0,0,0,.239-5.063h-6.982a21.976,21.976,0,0,0-3.251.186V37.892a22.164,22.164,0,0,0,3.278.186H140.7a22.248,22.248,0,0,0,3.251-.186v2.637a21.825,21.825,0,0,0-3.225-.186H133.1a41.7,41.7,0,0,1-.267,5.063h6.982a27.532,27.532,0,0,0,3.172-.16v2.505a28.356,28.356,0,0,0-3.144-.16Z" transform="translate(-23.847 -19.152)" fill="#323232"/>
    <path id="パス_2664" data-name="パス 2664" d="M147.16,49.04c-.107.4-.133.479-.319,1.171a29.863,29.863,0,0,1-3.465,8.314A9.643,9.643,0,0,0,141,57.007a22.988,22.988,0,0,0,3.572-8.795Zm.56-11.514a13.71,13.71,0,0,0,3.33,1.28,28.517,28.517,0,0,0,6.369,1.013,3.636,3.636,0,0,0,.479-.026l-.053,2.638a6.118,6.118,0,0,0-2.159.906c-1.892,1.146-2.877,2.344-2.877,3.437a2.254,2.254,0,0,0,.267.985c.292.507.292.507,2.024,2.373s2.426,3.225,2.426,4.8a4.552,4.552,0,0,1-1.653,3.49,5.317,5.317,0,0,1-3.464,1.146,8.409,8.409,0,0,1-5.463-2.131,12.746,12.746,0,0,0,.667-2.691,6.775,6.775,0,0,0,4.636,2.238,2.166,2.166,0,0,0,2.372-2.1,3.593,3.593,0,0,0-.586-1.813,12.63,12.63,0,0,0-1.892-2.4c-1.332-1.492-1.865-2.584-1.865-3.838,0-1.412.853-2.8,2.479-4.077.372-.267.479-.346,1.331-.907a18.913,18.913,0,0,1-6.475-1.545,7.8,7.8,0,0,0-.906-.32ZM160.671,47.84a29.465,29.465,0,0,1,4.449,8.928l-2.611,1.252a24.54,24.54,0,0,0-1.785-5.01,18.328,18.328,0,0,0-2.424-4.157Z" transform="translate(-15.602 -19.294)" fill="#323232"/>
    <path id="パス_2663" data-name="パス 2663" d="M165.035,38.3a15.573,15.573,0,0,0,2.826.161c2.424,0,5.57-.135,8.181-.347a2.925,2.925,0,0,0,1.492-.32l1.438,2a5.751,5.751,0,0,0-1.359,1.092,57.041,57.041,0,0,1-8.446,7.008l.053.081a13.051,13.051,0,0,1,6-1.413c4.478,0,7.383,2.293,7.383,5.835a6.353,6.353,0,0,1-3.571,5.73,12.866,12.866,0,0,1-6.265,1.466,8.985,8.985,0,0,1-4.93-1.118,3.639,3.639,0,0,1-1.6-3.012c0-2.024,1.84-3.518,4.292-3.518a5.565,5.565,0,0,1,4.529,2.213,7.473,7.473,0,0,1,1.227,2.451,6.67,6.67,0,0,0,2-.96,3.879,3.879,0,0,0,1.624-3.171c0-2.345-2.077-3.757-5.463-3.757a16.821,16.821,0,0,0-11.086,4.5l-1.545-2.372c2.4-1.278,8.662-6.422,12.125-9.966l.453-.453-.028-.026c-.959.133-3.811.32-7.86.479a10.318,10.318,0,0,0-1.332.133Zm5.491,15.777c-1.093,0-1.787.534-1.787,1.385,0,1.173,1.359,1.892,3.6,1.892a8.784,8.784,0,0,0,1.519-.107c-.532-2.1-1.651-3.171-3.33-3.171" transform="translate(-7.499 -19.188)" fill="#323232"/>
    <path id="パス_2662" data-name="パス 2662" d="M181.661,42.359a16.1,16.1,0,0,0,2.425.133,60.261,60.261,0,0,0,7.436-.534,10.918,10.918,0,0,0-.509-1.2c-.238-.613-.613-1.519-.959-2.424a7.031,7.031,0,0,0-.372-.774l2.905-.4a21.933,21.933,0,0,0,1.571,4.477,34.591,34.591,0,0,0,6.475-1.626l.347,2.665c-.641.106-.853.16-1.759.372-1.919.427-1.972.453-4.129.879.878,1.706,1.491,2.852,1.812,3.385.8,1.306,1.892,2.958,2.878,4.264l-2.559,1.252a4.777,4.777,0,0,0-1.837-1.118,13.274,13.274,0,0,0-4.372-.639,9.024,9.024,0,0,0-4.77,1.011,2.714,2.714,0,0,0-1.306,2.24c0,1.865,2.106,2.932,5.838,2.932a17.829,17.829,0,0,0,7.833-1.76l.372,2.852a24.735,24.735,0,0,1-8.128,1.438c-3.569,0-6.181-.773-7.461-2.212a4.687,4.687,0,0,1-1.2-3.171,5.078,5.078,0,0,1,2.637-4.29,10.514,10.514,0,0,1,5.7-1.306,12.7,12.7,0,0,1,5.063.827l-.24-.346a31.223,31.223,0,0,1-2.477-4.157c-.24-.481-.293-.561-.453-.853a77.309,77.309,0,0,1-9.46.666c-.588.028-.693.028-1.12.081Z" transform="translate(0.23 -19.436)" fill="#323232"/>
    <path id="パス_2660" data-name="パス 2660" d="M207.012,37.2a46.759,46.759,0,0,0,1.865,8.553c1.28-.506,2.1-.8,3.464-1.28l3.571-1.2a6.893,6.893,0,0,0,.986-.4l1.013,2.8a60.865,60.865,0,0,0-8.5,2.584c-4.078,1.571-6.1,3.357-6.1,5.408,0,1.306.827,2.159,2.505,2.587a20.713,20.713,0,0,0,4.21.345,28.651,28.651,0,0,0,8.074-1.013l.24,3.066c-.559.026-.639.026-2.079.186a52.227,52.227,0,0,1-6.1.374c-3.572,0-5.783-.4-7.436-1.362a4.768,4.768,0,0,1-2.265-4.261,6.073,6.073,0,0,1,2.373-4.611,16.551,16.551,0,0,1,3.571-2.265,58.726,58.726,0,0,1-1.867-7.3,7.98,7.98,0,0,0-.425-1.731Z" transform="translate(7.548 -19.42)" fill="#323232"/>
    <path id="パス_2634" data-name="パス 2634" d="M218.329,48.126a7.473,7.473,0,0,0,1.171.079c.214,0,.321,0,.853-.025.214-.267.214-.267.64-.827.213-.267.453-.586.906-1.225a33.95,33.95,0,0,0-3.465-4.157l1.28-1.84c.4.453.532.586.853.934a16.4,16.4,0,0,0,2.238-4.478l2.211.853a7.916,7.916,0,0,0-.585.985,44.026,44.026,0,0,1-2.505,4.265c.213.292.4.506.507.639.453.532.506.613.746.906a30.764,30.764,0,0,0,2.69-4.743l2.08,1.12a9.032,9.032,0,0,0-.853,1.252c-1.066,1.706-3.144,4.691-4.345,6.209,1.759-.107,2.106-.133,3.386-.267a20.1,20.1,0,0,0-.934-2.212l1.652-.827a35.349,35.349,0,0,1,2.1,5.49l-1.838.827c-.16-.639-.214-.853-.347-1.332-.692.079-.878.107-2,.214v8.527a15.615,15.615,0,0,0,.16,2.772h-2.48a16.1,16.1,0,0,0,.161-2.772V50.152c-.774.053-1.252.079-2.238.132a12.332,12.332,0,0,0-1.787.188Zm3.2,3.785a32.06,32.06,0,0,1-1.121,7.808l-1.972-.96a22.573,22.573,0,0,0,1.093-7.222Zm5.835-.453a43.438,43.438,0,0,1,.959,6.341l-1.891.481a33.52,33.52,0,0,0-.8-6.423Zm12.391-10.1a19.728,19.728,0,0,0,2.452-.106,27.479,27.479,0,0,0-.107,2.772V58.333c0,2.052-.586,2.479-3.33,2.479-.907,0-1.332,0-2.1-.054a6.466,6.466,0,0,0-.561-2.425,18.518,18.518,0,0,0,2.693.24c.827,0,1.092-.16,1.092-.667V53.083a9.872,9.872,0,0,0-1.039,1.812,12.838,12.838,0,0,1-2.052-3.251,14.827,14.827,0,0,1-1.225-4.1,14.278,14.278,0,0,1-3.091,7.515,7.419,7.419,0,0,0-1.2-1.892v5.144a25.906,25.906,0,0,0,.106,2.877h-2.425a22.974,22.974,0,0,0,.135-3.037V43.969c0-1.252-.028-1.866-.081-2.718a19.729,19.729,0,0,0,2.451.106h2.877V39.519a17.787,17.787,0,0,0-.158-2.479h2.558a16.781,16.781,0,0,0-.16,2.479v1.838ZM231.28,52.63a9.675,9.675,0,0,0,1.945-3.118,15.456,15.456,0,0,0,1.118-5.97H231.28Zm5.3-9.088a13.538,13.538,0,0,0,1.387,5.835,10.781,10.781,0,0,0,1.917,3.012V43.542Z" transform="translate(14.508 -19.659)" fill="#323232"/>
    <path id="パス_2633" data-name="パス 2633" d="M244.207,40.474c-.985.214-1.494.321-2.958.56a6.34,6.34,0,0,0-.932-2.052,24.632,24.632,0,0,0,6.929-1.678,7.348,7.348,0,0,0,1.118-.639l1.412,1.972c-.265.107-.4.16-.693.293a18.017,18.017,0,0,1-2.556.932v3.865h1.013a11.226,11.226,0,0,0,1.84-.107v2.318a11.284,11.284,0,0,0-1.84-.107H246.6a13.466,13.466,0,0,0,3.039,4.745,12.5,12.5,0,0,0-1.039,2.077,14.728,14.728,0,0,1-2.24-3.97c.081.8.161,2.637.161,3.437v5.942a23.091,23.091,0,0,0,.16,3.2h-2.638a25.223,25.223,0,0,0,.16-3.2v-5.33c0-.666.106-2.8.161-3.678A18.962,18.962,0,0,1,240.8,55.9a7.574,7.574,0,0,0-1.2-2.265,19.417,19.417,0,0,0,2.718-3.971,24.307,24.307,0,0,0,1.571-3.838h-1.519a11.67,11.67,0,0,0-2.185.135V43.592a11.792,11.792,0,0,0,2.185.135h1.838Zm13.217,1.706a22.38,22.38,0,0,0,2.24-5.33l2.45.825a34.24,34.24,0,0,1-2.29,4.5h1.146a17.752,17.752,0,0,0,2.184-.107,12.14,12.14,0,0,0-.107,1.812v4.664a15.147,15.147,0,0,0,.107,1.945,17.75,17.75,0,0,0-2.184-.107h-1.387v7.7c0,.56.16.641,1.387.641.8,0,1.119-.107,1.278-.453a11.723,11.723,0,0,0,.321-3.492A5.866,5.866,0,0,0,264.7,55.8c-.186,2.744-.374,3.6-.827,4.264-.506.692-1.25.878-3.676.878-2.345,0-2.932-.425-2.932-2.158V50.387h-2.026a16.139,16.139,0,0,1-1.146,5.942,9.527,9.527,0,0,1-4.77,5.037,7.007,7.007,0,0,0-1.7-1.945,8.226,8.226,0,0,0,4.343-4.05,12.321,12.321,0,0,0,.934-4.984h-.639a16.266,16.266,0,0,0-2.08.107c.053-.666.081-1.28.081-1.972V43.965c0-.586-.028-1.253-.081-1.892a16.966,16.966,0,0,0,2.1.107Zm-4.182-.267A15.451,15.451,0,0,0,251,37.837l2.184-1.013a25.128,25.128,0,0,1,2.24,4.1Zm-.693,6.369h8.181v-4h-8.181Z" transform="translate(22.791 -19.63)" fill="#323232"/>
    <path id="パス_2670" data-name="パス 2670" d="M69.019,38.372c.119.6-.158.759-.62.363l-4.959-4.268a.646.646,0,0,1,.1-1.114L66.707,31.5a.645.645,0,0,1,1.02.457Z" transform="translate(-45.911 -21.686)" fill="#9b7331"/>
    <path id="パス_2672" data-name="パス 2672" d="M67.007,39.971c.506.336.425.649-.182.695l-6.525.489a.646.646,0,0,1-.716-.86l.928-3.547a.645.645,0,0,1,1.045-.4Z" transform="translate(-47.319 -19.807)" fill="#9b7331"/>
    <path id="パス_2671" data-name="パス 2671" d="M70.459,37.792c.046.606.358.688.695.182l3.622-5.449a.645.645,0,0,0-.4-1.045l-3.547-.928a.646.646,0,0,0-.86.716Z" transform="translate(-43.264 -22.022)" fill="#9b7331"/>
    <path id="パス_2669" data-name="パス 2669" d="M83.279,38.681A1.522,1.522,0,0,1,81.762,40.2H77.709a1.521,1.521,0,0,0-1.516,1.517v2.263A1.522,1.522,0,0,1,74.676,45.5H64.4a1.521,1.521,0,0,0-1.516,1.517V50.8A1.521,1.521,0,0,0,64.4,52.318H71.3a1.521,1.521,0,0,1,1.516,1.517v.278a1.522,1.522,0,0,0,1.517,1.516H77.06a1.522,1.522,0,0,0,1.517-1.516V51.557c0-.42.682-.761,1.516-.761h6.636a1.522,1.522,0,0,0,1.517-1.517V44.3a1.521,1.521,0,0,1,1.517-1.517h.343a1.521,1.521,0,0,0,1.517-1.517V36.025a1.521,1.521,0,0,0-1.517-1.516H84.8a1.521,1.521,0,0,0-1.517,1.516Z" transform="translate(-46.02 -20.469)" fill="#be2026"/>
    <path id="長方形_1711" data-name="長方形 1711" d="M1.092,0H4.729A1.091,1.091,0,0,1,5.82,1.091V3.225A1.092,1.092,0,0,1,4.728,4.317H1.092A1.092,1.092,0,0,1,0,3.225V1.092A1.092,1.092,0,0,1,1.092,0Z" transform="translate(19.798 32.974)" fill="#be2026"/>
    <rect id="長方形_1712" data-name="長方形 1712" width="7.796" height="5.919" rx="1.092" transform="translate(10.786 32.976)" fill="#be2026"/>
    <path id="パス_2673" data-name="パス 2673" d="M56.348,51.981a.948.948,0,1,0,.948-.948.951.951,0,0,0-.948.948" transform="translate(-48.567 -14.035)" fill="#be2026"/>
    <path id="パス_2667" data-name="パス 2667" d="M82.231,25.757a1.522,1.522,0,0,0-1.517,1.517v5.264c0,.835-.342,1.288-.88,1.407a1.461,1.461,0,0,0-1.2,1.774,1.825,1.825,0,0,0,1.808,1.438,1.383,1.383,0,0,0,1.427-1.135c.1-.543.571-.924,1.406-.924h7.778a1.522,1.522,0,0,0,1.517-1.517V27.274a1.521,1.521,0,0,0-1.517-1.517Z" transform="translate(-39.898 -23.878)" fill="#be2026"/>
    <path id="パス_2668" data-name="パス 2668" d="M102.178,71.423a28.876,28.876,0,0,0,1.449-34.281.742.742,0,1,0-1.23.829,27.389,27.389,0,0,1-1.21,32.311H90.993a4.727,4.727,0,0,0,1.337-2.159,2.947,2.947,0,0,0-.5-2.587A3.265,3.265,0,0,0,89.56,64.31c-1.659-.192-3.658.585-5.635,2.19a30.02,30.02,0,0,0-4.157,4.656A30.093,30.093,0,0,0,75.61,66.5c-1.977-1.6-3.976-2.381-5.637-2.19A3.268,3.268,0,0,0,67.7,65.536a2.951,2.951,0,0,0-.5,2.59,4.73,4.73,0,0,0,1.335,2.156H58.133a27.426,27.426,0,0,1,31.3-42.6.741.741,0,1,0,.528-1.385A28.9,28.9,0,0,0,57.011,71.255a.723.723,0,0,0,.3.381,29.01,29.01,0,0,0,11.957,8.653c-.748.464-1.527.923-2.356,1.366a.742.742,0,1,0,.7,1.307c1.237-.664,2.374-1.352,3.435-2.041a28.928,28.928,0,0,0,17.361-.049c1.081.707,2.242,1.412,3.508,2.09a.742.742,0,1,0,.7-1.307c-.859-.461-1.666-.935-2.44-1.416a29.031,29.031,0,0,0,11.881-8.67.7.7,0,0,0,.117-.146M84.859,67.649c1.639-1.33,3.291-2.009,4.529-1.866a1.812,1.812,0,0,1,1.27.66,1.47,1.47,0,0,1,.233,1.312c-.289,1.128-1.562,2.258-3.493,3.1a15.977,15.977,0,0,1-6.213.886,27.473,27.473,0,0,1,3.674-4.093M68.876,66.443a1.807,1.807,0,0,1,1.27-.66,3.309,3.309,0,0,1,.338-.017,7.259,7.259,0,0,1,4.192,1.883,27.473,27.473,0,0,1,3.674,4.093,16.047,16.047,0,0,1-6.213-.886c-1.933-.841-3.205-1.973-3.494-3.1a1.475,1.475,0,0,1,.235-1.314m-9.494,5.324H70.615c.295.156.6.308.925.449a16.507,16.507,0,0,0,6.2,1.021l.3,0a43.672,43.672,0,0,1-7.207,6.045,27.492,27.492,0,0,1-11.456-7.512M79.66,80.744a27.4,27.4,0,0,1-7.011-.91,42.517,42.517,0,0,0,7.118-6.277,42.5,42.5,0,0,0,7.055,6.234,27.429,27.429,0,0,1-7.162.953m8.964-1.51a43.751,43.751,0,0,1-7.133-6l.3,0a16.5,16.5,0,0,0,6.2-1.021c.325-.14.632-.293.925-.449H99.938a27.525,27.525,0,0,1-11.314,7.467" transform="translate(-50.748 -24.404)" fill="#be2026"/>
  </g>
</svg>
