<svg id="グループ_2264" data-name="グループ 2264" xmlns="http://www.w3.org/2000/svg" width="351.712" height="88.545" viewBox="0 0 351.712 88.545">
  <rect id="長方形_1713" data-name="長方形 1713" width="351.712" height="88.545" transform="translate(0)" fill="#fff"/>
  <g id="グループ_2237" data-name="グループ 2237" transform="translate(37.668 25.78)">
    <g id="グループ_2235" data-name="グループ 2235" transform="translate(0)">
      <path id="パス_2616" data-name="パス 2616" d="M420.783,32.49c-.846-.847-1.622-1.618-2.348-2.327a1.069,1.069,0,0,0-.6-.271,16.991,16.991,0,0,0-4.389.289c-.372.087-.316.357-.138.516,1.618,1.434,5.739,5.588,6.177,6,1.2,1.138,3.638,1.11,5.49.372a.28.28,0,0,0,.083-.5c-.93-.735-2.829-2.635-4.272-4.08" transform="translate(-385.933 -23.545)" fill="#ac0003"/>
      <path id="パス_2617" data-name="パス 2617" d="M438.139,34.1A13.058,13.058,0,0,0,433.8,29.34a20.144,20.144,0,0,0-11.541-3.748,22.769,22.769,0,0,0-10.889,2.955,20.617,20.617,0,0,0-9.626,14.434,20.339,20.339,0,0,0,3.311,14.283,8.267,8.267,0,0,0,1.192,1.355,3.385,3.385,0,0,0,.661.356,14.457,14.457,0,0,0,5.49.994c.373-.021.385-.413.076-.616a16.565,16.565,0,0,1-7.038-13.425,16.738,16.738,0,0,1,6.669-13.148,17.04,17.04,0,0,1,12.288-3.123,16.438,16.438,0,0,1,7.888,3.416c1.782,1.431,2.73,2.955,2.7,4.118,0,3.484-4.64,4.586-5.367,4.647s-.484.511.007.678c3.42,1.237,7,.151,8.553-2.569a6.276,6.276,0,0,0-.034-5.844" transform="translate(-391.524 -25.592)" fill="#ac0003"/>
      <path id="パス_2613" data-name="パス 2613" d="M434.307,53.707a.845.845,0,0,0,.027-.708c-.347-1.047-1.557-4.687-1.573-4.736-.1-.3-.41-.419-.564.034a22.615,22.615,0,0,1-5.5,9.485,16.551,16.551,0,0,1-19.786,2.355,16.463,16.463,0,0,1-8.232-14.219,16.129,16.129,0,0,1,8.809-14.5,2.87,2.87,0,0,0,.717-.582,21.521,21.521,0,0,1,5.765-4.665c.256-.142.238-.575-.2-.558a20.357,20.357,0,0,0,1.505,40.667c6.879,0,14.64-3.413,19.029-12.572" transform="translate(-394.782 -25.583)" fill="#ac0003"/>
      <path id="パス_2614" data-name="パス 2614" d="M430.57,47.244s-3.063-.7-3.176-.717a.307.307,0,0,0-.393.2c-.785,1.835-3.134,3.09-4.059,3.613a1.758,1.758,0,0,0-.44.339,22.318,22.318,0,0,1-6.481,5.219c-.191.1-.144.28.16.28a20.258,20.258,0,0,0,11.627-4.38,8.825,8.825,0,0,0,2.992-4.13.3.3,0,0,0-.231-.425" transform="translate(-384.613 -15.521)" fill="#ac0003"/>
      <path id="パス_2618" data-name="パス 2618" d="M462.334,53.293c0-1.952,1.364-4.823,5.58-4.7a6.8,6.8,0,0,1,5.894,4.656,6.432,6.432,0,0,0,3.746-3.7c.692-2.127-.684-6.125-6.79-6.207a13.859,13.859,0,0,0-6,1.492,40.9,40.9,0,0,0-5.188,3.494l-2.8-3.683s11.926-9.319,13.572-10.754c-2.961.231-8.084.8-9.054.873a35.069,35.069,0,0,0-.216-4.616c6.764-.007,14.489-.585,14.489-.585s.754,2.829,1.206,4.128c-1.315,1.179-6.256,4.977-7.458,6.137,4.685-1.469,9.516.207,11.79,3.281,2.967,4.01,2.093,10.18-4.173,13.511-3.875,2.061-14.606,3.989-14.606-3.327m5.434-1.376c-1.708-.23-2.17,1.016-1.52,2.018.667,1.027,2.592.83,3.822.564a3.139,3.139,0,0,0-2.3-2.582" transform="translate(-364.938 -23.681)" fill="#ac0003"/>
      <path id="パス_2619" data-name="パス 2619" d="M476.967,48.187c2.4-8.866,13.987-5.145,13.987-5.145a49.341,49.341,0,0,1-3.483-4.443,49.246,49.246,0,0,1-10.68.45c.077,0,.077-4.629,0-4.629a40.6,40.6,0,0,0,8.195.018c-.44-.923-1.495-2.856-1.681-3.5.853-.23,2.883-.947,4.373-1.52a35.93,35.93,0,0,0,1.933,4.06,31.737,31.737,0,0,0,6.887-3.2c0,.027,1.262,2.586,2.221,4.072a34.422,34.422,0,0,1-6.814,3.026c.547.825,3.659,5.57,7.512,8.27.012.009-1.6,2.535-2.448,4.1-.7-.262-6.924-3.549-10.71-3.549-4.291,0-4.868,2.775-4.819,3.788A4.147,4.147,0,0,0,484,53.32c3.582,1.674,10.9-.327,11.944-.622.105.822.542,3.727.662,4.657-18.447,4.745-20.553-5.786-19.638-9.168" transform="translate(-355.309 -23.751)" fill="#ac0003"/>
      <path id="パス_2620" data-name="パス 2620" d="M518.959,58.711c-.677-.874-2.283-2.727-2.973-3.512,2.278-1.338,6.832-3.794,7.755-8.682H510.983V41.993h12.8a49.027,49.027,0,0,0-.35-5c-2.548.773-5.31,1.659-8.11,2.226a24.512,24.512,0,0,0-1.5-4.376,67.066,67.066,0,0,0,8.466-2.117,67.335,67.335,0,0,0,9.2-3.613,27.945,27.945,0,0,0,2.652,3.733,38.444,38.444,0,0,1-6.25,2.659c.352,2.386.428,6.491.428,6.491h9.965v4.524H528.3c-.647,5.41-3.053,8.377-9.34,12.194" transform="translate(-338.851 -23.899)" fill="#ac0003"/>
      <path id="パス_2621" data-name="パス 2621" d="M586.62,57.969c-1.046-.969-8.592-7.906-10.07-9.483a42.818,42.818,0,0,1-11.589,9.424c-.8-1.431-2.613-3.942-2.613-3.942,10.34-5.626,15.286-13.252,15.61-18.691H565.908V30.652H583.57a28.74,28.74,0,0,1-4.241,14.314c2.14,2.1,8,7.51,10.656,9.629-.687.619-2.82,2.887-3.365,3.374" transform="translate(-314.128 -23.157)" fill="#ac0003"/>
      <path id="パス_2622" data-name="パス 2622" d="M499.338,40c-1.505-2.514-3.949-6.484-4.805-8.3,0,0,2.429-1.452,3.976-2.521a70.324,70.324,0,0,0,4.634,8.143,58.759,58.759,0,0,1,10.962-4.6,43.03,43.03,0,0,0,1.336,4.459c-20.281,6.088-18.615,15.662-10.721,16.739,2.878.393,7.516-.486,11.289-1.705a37.941,37.941,0,0,0,.779,4.675c-1.292.379-10.36,3.483-16.863.51-6.035-2.758-7.833-10.387-.587-17.4" transform="translate(-346.77 -23.867)" fill="#ac0003"/>
      <path id="パス_2623" data-name="パス 2623" d="M531.343,56.648V52.73l12.51-.022-.114-5.641H533.175v-4.04c0,.016,10.563,0,10.563,0V37.353h-12.4c-.045-.163,0-3.9,0-3.9h16.9c-.077,0-.081-.123-.081,0l.081,23.164Z" transform="translate(-329.061 -21.836)" fill="#ac0003"/>
      <path id="パス_2624" data-name="パス 2624" d="M562.628,58.568c-.07-3.016-.207-15.467-.007-18.628,0,0,1.682-1.48,3.431-3.243a38.969,38.969,0,0,0,3.768-4.5c-.892-.628-3.616-2.791-3.616-2.791-3.333,4.81-10.581,9.919-13.382,11.433a58.474,58.474,0,0,1-7.688,3.477s1.539,3.161,2.037,4.149a60.1,60.1,0,0,0,6.9-3.08,42.424,42.424,0,0,0,3.792-2.247c.161,2.327.147,11.98,0,15.428Z" transform="translate(-322.414 -23.755)" fill="#ac0003"/>
      <path id="パス_2625" data-name="パス 2625" d="M447.894,55.82a9.944,9.944,0,0,1-8.1-3.911,44.048,44.048,0,0,0,2.98-3.6c.727.945,2.275,2.7,4.256,2.936s3.7-.951,3.01-3.212c-.772-2.518-3.969-4.444-5.576-6.872a5.052,5.052,0,0,1,.52-6.042c.794.434,2.834,1.471,4.139,2.069-1.274,1.521-1.089,2.3-.278,3.2,1.573,1.589,5.314,4.989,5.918,8.254.834,4.5-3.5,7.184-6.871,7.184" transform="translate(-373.115 -21.008)" fill="#ac0003"/>
      <path id="パス_2626" data-name="パス 2626" d="M455.82,50.881a34.561,34.561,0,0,0-5.834-10.248c.716-.4,2.766-1.7,3.3-2.084a36.291,36.291,0,0,1,6.579,10c-.56.342-2.635,1.475-4.041,2.335" transform="translate(-368.211 -19.355)" fill="#ac0003"/>
      <path id="パス_2627" data-name="パス 2627" d="M434.093,49.009c1.678-2.877,5.539-8.67,6.761-10.206a38.125,38.125,0,0,0,3.225,2.1,80.985,80.985,0,0,0-5.639,9.792c-.21-.108-3.412-1.349-4.346-1.687" transform="translate(-375.86 -19.234)" fill="#ac0003"/>
      <path id="パス_2628" data-name="パス 2628" d="M453.189,38.069a109.9,109.9,0,0,1-11.111-4.891s1.148-3.093,1.4-3.748c1.526.775,8.7,3.57,10.8,4.225a36.225,36.225,0,0,0-1.089,4.414" transform="translate(-372.017 -23.745)" fill="#ac0003"/>
    </g>
  </g>
</svg>
